
                <svg 
                  xmlns="http://www.w3.org/2000/svg" 
                  viewBox="0 0 75 75" 
                  width="75mm" 
                  height="75mm"
                  style="transform: scale(1, -1)">
                    <path 
                    d="M 30.50000000000002 39.499999999999986L 30.79440604596453 39.50722726276895L 31.08810284197739 39.52889163996681L 31.38038284673219 39.5649409402113L 31.67054193209679 39.61528831758061L 31.957881079419607 39.67981248083272L 32.241708063526794 39.758357985606736L 32.52133912035334 39.850735608901864L 32.79610059419056 39.95672280493227L 33.065330560581714 40.076064241259324L 33.32838042095601 40.20847241390985L 33.58461646515935 40.35362833999835L 33.833421398117636 40.511182326184716L 34.07419582695462 40.68075481111612L 34.306359704981894 40.861937279823564L 34.52935372908213 41.054293247870234L 34.742640687119305 41.2573593128807L 34.94570675212977 41.470646270917875L 35.13806272017644 41.69364029501811L 35.31924518888389 41.925804173045385L 35.48881767381529 42.16657860188237L 35.646371660001655 42.41538353484066L 35.79152758609015 42.671619579044L 35.92393575874068 42.93466943941829L 36.04327719506774 43.203899405809445L 36.14926439109815 43.47866087964667L 36.24164201439327 43.75829193647321L 36.320187519167284 44.0421189205804L 36.3847116824194 44.32945806790322L 36.435059059788706 44.61961715326782L 36.471108360033206 44.91189715802262L 36.49277273723106 45.20559395403548L 36.50000000000002 45.499999999999986L 36.49277273723106 45.79440604596449L 36.471108360033206 46.088102841977346L 36.435059059788706 46.380382846732154L 36.3847116824194 46.670541932096754L 36.320187519167284 46.95788107941957L 36.24164201439327 47.24170806352676L 36.14926439109814 47.5213391203533L 36.04327719506774 47.79610059419052L 35.92393575874068 48.06533056058168L 35.79152758609015 48.32838042095597L 35.646371660001655 48.584616465159314L 35.48881767381529 48.83342139811759L 35.31924518888389 49.074195826954586L 35.13806272017644 49.30635970498186L 34.94570675212977 49.529353729082096L 34.742640687119305 49.74264068711927L 34.52935372908213 49.94570675212974L 34.306359704981894 50.13806272017641L 34.07419582695462 50.319245188883855L 33.833421398117636 50.48881767381526L 33.58461646515935 50.64637166000162L 33.32838042095601 50.79152758609011L 33.065330560581714 50.92393575874065L 32.79610059419056 51.0432771950677L 32.52133912035334 51.149264391098114L 32.241708063526794 51.241642014393236L 31.957881079419607 51.32018751916725L 31.67054193209679 51.384711682419365L 31.38038284673219 51.43505905978867L 31.08810284197739 51.47110836003317L 30.79440604596453 51.49277273723102L 30.50000000000002 51.499999999999986L 14.500000000000021 51.499999999999986L 14.205593954035514 51.49277273723102L 13.911897158022658 51.47110836003317L 13.619617153267853 51.43505905978867L 13.329458067903253 51.38471168241937L 13.042118920580435 51.32018751916725L 12.758291936473249 51.24164201439324L 12.478660879646704 51.149264391098114L 12.20389940580948 51.04327719506771L 11.934669439418329 50.92393575874065L 11.671619579044034 50.79152758609012L 11.415383534840693 50.64637166000162L 11.166578601882406 50.488817673815255L 10.925804173045421 50.319245188883855L 10.693640295018149 50.13806272017641L 10.47064627091791 49.945706752129745L 10.257359312880737 49.74264068711927L 10.05429324787027 49.529353729082096L 9.8619372798236 49.30635970498186L 9.680754811116152 49.074195826954586L 9.511182326184752 48.8334213981176L 9.353628339998387 48.584616465159314L 9.208472413909888 48.32838042095597L 9.07606424125936 48.06533056058168L 8.956722804932298 47.79610059419053L 8.850735608901893 47.52133912035331L 8.758357985606764 47.24170806352676L 8.679812480832759 46.95788107941957L 8.615288317580635 46.670541932096754L 8.564940940211336 46.380382846732154L 8.528891639966837 46.08810284197735L 8.507227262768986 45.79440604596449L 8.500000000000021 45.499999999999986L 8.507227262768986 45.20559395403548L 8.528891639966837 44.911897158022626L 8.564940940211336 44.61961715326782L 8.615288317580635 44.32945806790322L 8.679812480832755 44.04211892058041L 8.758357985606764 43.75829193647321L 8.850735608901893 43.47866087964667L 8.956722804932298 43.20389940580945L 9.07606424125936 42.93466943941829L 9.208472413909888 42.671619579044L 9.353628339998387 42.41538353484066L 9.511182326184745 42.16657860188238L 9.680754811116149 41.925804173045385L 9.861937279823596 41.69364029501811L 10.054293247870266 41.470646270917875L 10.257359312880734 41.2573593128807L 10.470646270917907 41.054293247870234L 10.693640295018149 40.861937279823564L 10.925804173045421 40.68075481111612L 11.166578601882406 40.511182326184716L 11.41538353484069 40.35362833999835L 11.671619579044034 40.20847241390986L 11.934669439418329 40.076064241259324L 12.20389940580948 39.95672280493227L 12.478660879646696 39.850735608901864L 12.758291936473245 39.758357985606736L 13.042118920580435 39.67981248083272L 13.32945806790325 39.61528831758061L 13.61961715326785 39.5649409402113L 13.911897158022654 39.52889163996681L 14.205593954035514 39.50722726276895L 14.500000000000021 39.499999999999986L 30.50000000000002 39.499999999999986M 35.50000000000002 54.499999999999986L 35.50000000000003 60.499999999999986L 35.48374274007217 60.94138738159799L 35.43505905978871 61.380382846732154L 35.3542127802312 61.8146074409412L 35.24164201439328 62.24170806352676L 35.097956793008464 62.65937021920991L 34.92393575874069 63.06533056058167L 34.7205219466523 63.457389153378685L 34.4888176738153 63.83342139811759L 34.23007856575967 64.19138954348374L 33.94570675212978 64.52935372908209L 33.63724326842243 64.84548249770879L 33.3063597049819 65.1380627201764L 32.9548491485071 65.40550887890949L 32.58461646515936 65.6463716600016L 32.197667977927665 65.85934580717307L 31.79610059419057 66.0432771950677L 31.382090442393377 66.1971690835582L 30.957881079419614 66.32018751916725L 30.52577133256184 66.41166585433363L 30.088102841977395 66.47110836003317L 29.647247371137503 66.4981929121772L 29.20559395403552 66.49277273723102L 28.765535948804732 66.45487720759225L 28.32945806790326 66.38471168241936L 27.899723455150642 66.28265639477262L 27.47866087964671 66.1492643910981L 27.068552115970085 65.98525853422116L 26.67161957904404 65.79152758609011L 26.290014280677447 65.56912139149823L 25.925804173045428 65.31924518888385L 25.580962942277374 65.04325307903889L 25.257359312880745 64.74264068711928L 24.956746920961123 64.41903705772265L 24.68075481111616 64.07419582695458L 24.430878608501786 63.70998571932257L 24.208472413909895 63.32838042095597L 24.01474146577884 62.93144788402992L 23.8507356089019 62.5213391203533L 23.717343605227388 62.10027654484938L 23.615288317580642 61.670541932096754L 23.545122792407767 61.23446405119529L 23.507227262768993 60.79440604596449L 23.5018070878228 60.35275262886252L 23.528891639966844 59.911897158022626L 23.58833414566638 59.47422866743818L 23.679812480832766 59.04211892058041L 23.802830916441806 58.61790955760664L 23.956722804932305 58.20389940580945L 24.140654192826936 57.80233202207235L 24.353628339998394 57.41538353484066L 24.594491121090524 57.04515085149291L 24.8619372798236 56.69364029501811L 25.15451750229122 56.36275673157759L 25.47064627091791 56.054293247870234L 25.808610456516263 55.769921434240345L 26.166578601882414 55.51118232618471L 26.542610846621322 55.27947805334772L 26.93466943941833 55.076064241259324L 27.340629780790096 54.90204320699155L 27.75829193647325 54.75835798560673L 28.185392559058805 54.64578721976881L 28.619617153267853 54.5649409402113L 29.058612618402023 54.51625725992784L 29.50000000000002 54.499999999999986L 35.50000000000002 54.49999999999998M 35.50000000000001 30.49999999999998L 35.49277273723104 30.794406045964486L 35.47110836003319 31.088102841977346L 35.43505905978869 31.380382846732147L 35.38471168241939 31.670541932096747L 35.32018751916728 31.957881079419565L 35.241642014393264 32.24170806352675L 35.149264391098136 32.521339120353296L 35.04327719506773 32.79610059419052L 34.92393575874067 33.06533056058167L 34.79152758609014 33.328380420955966L 34.64637166000164 33.58461646515931L 34.488817673815284 33.83342139811759L 34.31924518888388 34.07419582695458L 34.138062720176436 34.30635970498185L 33.945706752129766 34.52935372908209L 33.7426406871193 34.74264068711926L 33.529353729082125 34.94570675212974L 33.30635970498189 35.13806272017641L 33.074195826954615 35.31924518888385L 32.83342139811763 35.488817673815255L 32.58461646515934 35.64637166000161L 32.328380420956 35.79152758609011L 32.06533056058171 35.92393575874064L 31.796100594190555 36.0432771950677L 31.521339120353332 36.14926439109811L 31.241708063526787 36.241642014393236L 30.9578810794196 36.32018751916725L 30.670541932096782 36.384711682419365L 30.380382846732182 36.43505905978867L 30.08810284197738 36.47110836003316L 29.79440604596452 36.492772737231014L 29.500000000000014 36.499999999999986L 29.205593954035507 36.492772737231014L 28.911897158022647 36.47110836003316L 28.619617153267846 36.43505905978867L 28.329458067903246 36.384711682419365L 28.042118920580428 36.32018751916725L 27.758291936473242 36.241642014393236L 27.478660879646696 36.14926439109811L 27.203899405809473 36.0432771950677L 26.93466943941832 35.92393575874065L 26.671619579044027 35.79152758609011L 26.41538353484068 35.64637166000162L 26.1665786018824 35.488817673815255L 25.925804173045414 35.319245188883855L 25.69364029501814 35.13806272017641L 25.470646270917904 34.94570675212974L 25.25735931288073 34.74264068711927L 25.054293247870255 34.529353729082096L 24.861937279823593 34.30635970498186L 24.680754811116145 34.074195826954586L 24.511182326184738 33.8334213981176L 24.35362833999838 33.584616465159314L 24.20847241390988 33.32838042095597L 24.076064241259353 33.06533056058168L 23.95672280493229 32.79610059419053L 23.850735608901886 32.52133912035331L 23.758357985606757 32.24170806352676L 23.679812480832748 31.957881079419572L 23.615288317580628 31.670541932096754L 23.564940940211326 31.380382846732154L 23.52889163996683 31.088102841977353L 23.50722726276898 30.794406045964493L 23.50000000000001 30.499999999999986L 23.49999999999997 14.499999999999984L 23.507227262768936 14.205593954035477L 23.52889163996679 13.91189715802262L 23.564940940211287 13.619617153267813L 23.61528831758059 13.329458067903216L 23.67981248083271 13.042118920580402L 23.758357985606718 12.758291936473212L 23.850735608901847 12.478660879646663L 23.956722804932248 12.203899405809446L 24.07606424125931 11.934669439418292L 24.20847241390984 11.671619579043996L 24.353628339998338 11.415383534840656L 24.5111823261847 11.16657860188237L 24.680754811116103 10.925804173045384L 24.86193727982355 10.693640295018112L 25.054293247870213 10.470646270917873L 25.25735931288068 10.2573593128807L 25.47064627091786 10.054293247870229L 25.6936402950181 9.861937279823563L 25.92580417304537 9.680754811116115L 26.166578601882357 9.511182326184715L 26.415383534840636 9.35362833999835L 26.671619579043984 9.20847241390985L 26.93466943941828 9.076064241259322L 27.20389940580943 8.95672280493226L 27.478660879646647 8.850735608901855L 27.758291936473192 8.758357985606727L 28.042118920580386 8.679812480832718L 28.329458067903197 8.615288317580598L 28.619617153267797 8.564940940211295L 28.911897158022605 8.5288916399668L 29.205593954035457 8.507227262768945L 29.499999999999964 8.49999999999998L 29.79440604596447 8.507227262768945L 30.08810284197733 8.5288916399668L 30.38038284673214 8.564940940211295L 30.67054193209674 8.615288317580598L 30.95788107941955 8.679812480832718L 31.241708063526737 8.758357985606727L 31.52133912035329 8.850735608901855L 31.796100594190506 8.95672280493226L 32.06533056058166 9.076064241259315L 32.32838042095595 9.20847241390985L 32.58461646515929 9.353628339998343L 32.83342139811758 9.511182326184707L 33.07419582695457 9.680754811116108L 33.30635970498184 9.861937279823556L 33.52935372908208 10.054293247870225L 33.742640687119255 10.257359312880693L 33.94570675212972 10.470646270917866L 34.13806272017639 10.693640295018104L 34.31924518888384 10.925804173045377L 34.48881767381524 11.166578601882362L 34.646371660001606 11.415383534840645L 34.7915275860901 11.67161957904399L 34.92393575874063 11.934669439418284L 35.04327719506769 12.203899405809436L 35.14926439109809 12.478660879646656L 35.24164201439322 12.758291936473201L 35.320187519167234 13.042118920580391L 35.38471168241936 13.329458067903206L 35.43505905978866 13.619617153267805L 35.47110836003315 13.911897158022613L 35.49277273723101 14.20559395403547L 35.49999999999997 14.499999999999977L 35.49999999999996 30.49999999999998M 20.499999999999957 35.49999999999999L 14.499999999999957 35.49999999999999L 14.058612618401952 35.48374274007214L 13.619617153267786 35.43505905978868L 13.185392559058737 35.354212780231165L 12.758291936473185 35.24164201439325L 12.340629780790028 35.09795679300843L 11.934669439418265 34.923935758740654L 11.542610846621255 34.72052194665226L 11.166578601882346 34.48881767381526L 10.808610456516199 34.23007856575963L 10.47064627091785 33.945706752129745L 10.154517502291156 33.637243268422395L 9.861937279823536 33.306359704981865L 9.594491121090456 32.954849148507066L 9.353628339998327 32.58461646515932L 9.140654192826869 32.19766797792763L 8.956722804932241 31.796100594190534L 8.802830916441742 31.38209044239334L 8.679812480832698 30.95788107941958L 8.588334145666316 30.525771332561796L 8.52889163996678 30.088102841977353L 8.501807087822737 29.64724737113746L 8.507227262768929 29.20559395403548L 8.545122792407703 28.76553594880469L 8.615288317580582 28.329458067903225L 8.717343605227327 27.8997234551506L 8.85073560890184 27.478660879646675L 9.01474146577878 27.06855211597005L 9.208472413909835 26.671619579044005L 9.430878608501722 26.29001428067741L 9.680754811116095 25.925804173045393L 9.95674692096106 25.58096294227733L 10.25735931288068 25.25735931288071L 10.580962942277306 24.956746920961088L 10.925804173045368 24.680754811116124L 11.290014280677386 24.43087860850175L 11.67161957904398 24.20847241390986L 12.068552115970029 24.014741465778812L 12.478660879646647 23.85073560890187L 12.899723455150578 23.717343605227356L 13.329458067903197 23.615288317580614L 13.765535948804672 23.54512279240773L 14.20559395403546 23.507227262768957L 14.64724737113744 23.50180708782277L 15.088102841977332 23.528891639966815L 15.525771332561774 23.58833414566635L 15.95788107941955 23.679812480832737L 16.382090442393316 23.802830916441778L 16.796100594190506 23.956722804932276L 17.19766797792761 24.140654192826908L 17.5846164651593 24.353628339998366L 17.95484914850704 24.5944911210905L 18.30635970498184 24.86193727982358L 18.637243268422367 25.1545175022912L 18.94570675212972 25.47064627091789L 19.2300785657596 25.808610456516234L 19.488817673815237 26.166578601882385L 19.720521946652234 26.542610846621294L 19.923935758740626 26.934669439418307L 20.0979567930084 27.340629780790074L 20.241642014393218 27.758291936473228L 20.354212780231137 28.185392559058783L 20.43505905978865 28.619617153267825L 20.483742740072106 29.058612618401995L 20.499999999999964 29.5L 20.49999999999996 35.5M 44.499999999999964 35.49999999999997L 44.20559395403546 35.49277273723101L 43.9118971580226 35.471108360033156L 43.61961715326779 35.43505905978866L 43.32945806790319 35.38471168241936L 43.04211892058038 35.320187519167234L 42.758291936473185 35.24164201439323L 42.47866087964664 35.1492643910981L 42.20389940580942 35.043277195067695L 41.934669439418265 34.92393575874063L 41.67161957904398 34.791527586090105L 41.41538353484063 34.646371660001606L 41.16657860188235 34.48881767381525L 40.92580417304536 34.31924518888384L 40.69364029501809 34.13806272017639L 40.470646270917854 33.94570675212972L 40.25735931288067 33.742640687119255L 40.05429324787021 33.52935372908208L 39.86193727982354 33.306359704981844L 39.680754811116095 33.07419582695457L 39.51118232618469 32.833421398117586L 39.35362833999833 32.5846164651593L 39.20847241390984 32.32838042095596L 39.0760642412593 32.065330560581664L 38.95672280493225 31.796100594190506L 38.850735608901836 31.52133912035329L 38.758357985606715 31.241708063526744L 38.6798124808327 30.95788107941955L 38.615288317580585 30.67054193209674L 38.56494094021128 30.38038284673214L 38.52889163996678 30.08810284197733L 38.50722726276893 29.79440604596448L 38.499999999999964 29.49999999999997L 38.50722726276893 29.205593954035464L 38.52889163996678 28.911897158022605L 38.56494094021128 28.619617153267797L 38.615288317580585 28.329458067903197L 38.6798124808327 28.042118920580386L 38.758357985606715 27.7582919364732L 38.85073560890184 27.478660879646654L 38.95672280493225 27.20389940580943L 39.07606424125931 26.93466943941828L 39.20847241390984 26.671619579043984L 39.35362833999834 26.415383534840643L 39.511182326184695 26.166578601882357L 39.680754811116095 25.92580417304537L 39.86193727982354 25.6936402950181L 40.05429324787021 25.47064627091786L 40.25735931288068 25.257359312880688L 40.47064627091786 25.05429324787022L 40.69364029501809 24.86193727982355L 40.92580417304537 24.680754811116103L 41.16657860188236 24.511182326184702L 41.415383534840636 24.353628339998338L 41.671619579043984 24.208472413909845L 41.93466943941828 24.07606424125931L 42.20389940580943 23.956722804932255L 42.47866087964665 23.85073560890185L 42.75829193647319 23.75835798560672L 43.042118920580386 23.67981248083271L 43.3294580679032 23.615288317580593L 43.6196171532678 23.564940940211287L 43.911897158022605 23.528891639966794L 44.205593954035464 23.507227262768943L 44.499999999999964 23.49999999999997L 60.499999999999964 23.49999999999995L 60.79440604596447 23.507227262768914L 61.088102841977324 23.528891639966766L 61.38038284673214 23.564940940211258L 61.67054193209673 23.615288317580564L 61.95788107941954 23.67981248083268L 62.24170806352674 23.758357985606693L 62.521339120353296 23.85073560890182L 62.7961005941905 23.95672280493222L 63.06533056058165 24.07606424125928L 63.32838042095596 24.20847241390981L 63.58461646515931 24.35362833999831L 63.833421398117586 24.511182326184667L 64.07419582695456 24.680754811116067L 64.30635970498184 24.861937279823515L 64.52935372908209 25.054293247870184L 64.74264068711926 25.257359312880652L 64.94570675212972 25.470646270917833L 65.1380627201764 25.693640295018056L 65.31924518888385 25.92580417304533L 65.48881767381525 26.16657860188232L 65.64637166000162 26.4153835348406L 65.7915275860901 26.67161957904395L 65.92393575874064 26.934669439418236L 66.0432771950677 27.203899405809395L 66.14926439109811 27.47866087964661L 66.24164201439322 27.758291936473157L 66.32018751916723 28.04211892058035L 66.38471168241935 28.32945806790316L 66.43505905978867 28.61961715326776L 66.47110836003316 28.91189715802257L 66.49277273723101 29.20559395403542L 66.49999999999997 29.49999999999993L 66.49277273723101 29.794406045964436L 66.47110836003316 30.088102841977296L 66.43505905978867 30.380382846732104L 66.38471168241938 30.670541932096697L 66.32018751916726 30.957881079419515L 66.24164201439325 31.2417080635267L 66.14926439109811 31.521339120353254L 66.0432771950677 31.79610059419047L 65.92393575874064 32.06533056058163L 65.79152758609013 32.328380420955924L 65.64637166000162 32.584616465159264L 65.48881767381528 32.833421398117544L 65.31924518888385 33.074195826954536L 65.1380627201764 33.30635970498181L 64.94570675212975 33.52935372908205L 64.74264068711929 33.74264068711922L 64.52935372908212 33.945706752129695L 64.30635970498187 34.138062720176364L 64.0741958269546 34.31924518888381L 63.833421398117615 34.48881767381521L 63.584616465159336 34.64637166000157L 63.32838042095599 34.79152758609007L 63.06533056058169 34.9239357587406L 62.79610059419054 35.04327719506766L 62.521339120353325 35.14926439109807L 62.241708063526765 35.2416420143932L 61.957881079419586 35.320187519167206L 61.670541932096775 35.38471168241933L 61.38038284673217 35.435059059788635L 61.08810284197737 35.47110836003313L 60.7944060459645 35.49277273723098L 60.49999999999999 35.49999999999995L 44.5 35.50000000000003M 39.49999999999997 20.50000000000003L 39.49999999999995 14.500000000000027L 39.516257259927805 14.058612618402021L 39.564940940211265 13.619617153267855L 39.64578721976877 13.185392559058807L 39.758357985606686 12.758291936473254L 39.90204320699151 12.340629780790094L 40.07606424125928 11.93466943941833L 40.27947805334767 11.542610846621317L 40.51118232618467 11.166578601882408L 40.769921434240295 10.808610456516258L 41.05429324787018 10.470646270917909L 41.36275673157753 10.154517502291219L 41.69364029501806 9.861937279823595L 42.045150851492856 9.594491121090511L 42.41538353484059 9.353628339998378L 42.802332022072285 9.14065419282692L 43.20389940580939 8.956722804932289L 43.61790955760657 8.802830916441783L 44.04211892058034 8.679812480832743L 44.47422866743812 8.588334145666353L 44.91189715802256 8.52889163996682L 45.352752628862454 8.501807087822774L 45.79440604596443 8.507227262768959L 46.234464051195225 8.545122792407733L 46.67054193209669 8.615288317580609L 47.100276544849315 8.717343605227354L 47.52133912035324 8.850735608901863L 47.931447884029865 9.0147414657788L 48.32838042095591 9.208472413909854L 48.70998571932251 9.430878608501738L 49.07419582695453 9.680754811116111L 49.41903705772258 9.956746920961068L 49.74264068711921 10.257359312880693L 50.04325307903884 10.580962942277315L 50.319245188883805 10.925804173045373L 50.56912139149818 11.290014280677392L 50.79152758609007 11.671619579043982L 50.985258534221124 12.06855211597003L 51.149264391098065 12.478660879646648L 51.28265639477258 12.89972345515058L 51.38471168241933 13.329458067903198L 51.45487720759221 13.765535948804667L 51.492772737230986 14.205593954035459L 51.49819291217718 14.647247371137437L 51.471108360033135 15.08810284197733L 51.411665854333606 15.525771332561776L 51.32018751916722 15.957881079419552L 51.19716908355818 16.38209044239332L 51.04327719506768 16.796100594190506L 50.85934580717306 17.19766797792761L 50.6463716600016 17.5846164651593L 50.40550887890947 17.954849148507044L 50.13806272017639 18.306359704981844L 49.84548249770877 18.63724326842238L 49.52935372908208 18.94570675212973L 49.19138954348374 19.230078565759612L 48.833421398117586 19.488817673815248L 48.457389153378685 19.720521946652255L 48.06533056058167 19.92393575874064L 47.659370219209904 20.09795679300842L 47.24170806352675 20.241642014393243L 46.8146074409412 20.354212780231165L 46.380382846732154 20.435059059788678L 45.941387381597984 20.483742740072138L 45.49999999999998 20.5L 39.49999999999998 20.499999999999986M 39.500000000000064 44.499999999999986L 39.50722726276903 44.20559395403548L 39.528891639966886 43.911897158022626L 39.56494094021138 43.61961715326782L 39.615288317580685 43.32945806790322L 39.6798124808328 43.04211892058041L 39.758357985606814 42.75829193647321L 39.85073560890194 42.47866087964667L 39.95672280493235 42.20389940580945L 40.07606424125941 41.9346694394183L 40.20847241390994 41.671619579044005L 40.35362833999844 41.41538353484066L 40.5111823261848 41.16657860188238L 40.6807548111162 40.92580417304539L 40.86193727982365 40.69364029501812L 41.05429324787031 40.47064627091788L 41.25735931288079 40.25735931288071L 41.47064627091796 40.054293247870234L 41.6936402950182 39.86193727982357L 41.92580417304547 39.680754811116124L 42.166578601882456 39.51118232618472L 42.41538353484074 39.353628339998366L 42.67161957904408 39.20847241390987L 42.93466943941838 39.07606424125934L 43.20389940580954 38.95672280493228L 43.47866087964675 38.85073560890187L 43.758291936473306 38.75835798560674L 44.04211892058049 38.67981248083274L 44.32945806790331 38.615288317580614L 44.6196171532679 38.564940940211315L 44.91189715802271 38.528891639966815L 45.20559395403557 38.507227262768964L 45.50000000000008 38.5L 45.794406045964585 38.507227262768964L 46.08810284197744 38.52889163996682L 46.380382846732246 38.564940940211315L 46.670541932096846 38.61528831758062L 46.95788107941966 38.67981248083274L 47.24170806352685 38.75835798560675L 47.521339120353396 38.85073560890188L 47.79610059419061 38.956722804932284L 48.065330560581764 39.076064241259346L 48.32838042095606 39.208472413909874L 48.58461646515941 39.35362833999837L 48.833421398117686 39.51118232618474L 49.07419582695467 39.68075481111614L 49.30635970498194 39.861937279823586L 49.52935372908218 40.054293247870255L 49.742640687119355 40.25735931288072L 49.94570675212982 40.4706462709179L 50.13806272017649 40.693640295018135L 50.31924518888394 40.92580417304541L 50.48881767381534 41.1665786018824L 50.6463716600017 41.41538353484068L 50.7915275860902 41.67161957904403L 50.92393575874073 41.93466943941832L 51.04327719506779 42.20389940580947L 51.14926439109819 42.47866087964669L 51.24164201439332 42.75829193647324L 51.32018751916733 43.04211892058043L 51.38471168241945 43.32945806790324L 51.43505905978875 43.61961715326784L 51.47110836003325 43.91189715802265L 51.4927727372311 44.20559395403551L 51.500000000000064 44.500000000000014L 51.500000000000064 60.500000000000014L 51.4927727372311 60.79440604596452L 51.47110836003325 61.088102841977374L 51.43505905978875 61.38038284673218L 51.38471168241945 61.67054193209678L 51.32018751916733 61.95788107941959L 51.24164201439332 62.24170806352679L 51.14926439109819 62.52133912035333L 51.04327719506779 62.79610059419055L 50.92393575874073 63.0653305605817L 50.7915275860902 63.328380420955995L 50.646371660001705 63.58461646515934L 50.48881767381534 63.83342139811762L 50.31924518888394 64.07419582695461L 50.13806272017649 64.30635970498189L 49.94570675212983 64.52935372908212L 49.742640687119355 64.74264068711929L 49.52935372908218 64.94570675212977L 49.30635970498194 65.13806272017644L 49.07419582695467 65.31924518888388L 48.833421398117686 65.48881767381529L 48.5846164651594 65.64637166000165L 48.32838042095606 65.79152758609014L 48.065330560581764 65.92393575874067L 47.79610059419061 66.04327719506774L 47.521339120353396 66.14926439109814L 47.24170806352685 66.24164201439326L 46.95788107941966 66.32018751916728L 46.670541932096846 66.3847116824194L 46.380382846732246 66.43505905978871L 46.08810284197744 66.4711083600332L 45.794406045964585 66.49277273723105L 45.50000000000008 66.50000000000001L 45.20559395403557 66.49277273723105L 44.91189715802271 66.4711083600332L 44.6196171532679 66.43505905978871L 44.32945806790331 66.38471168241941L 44.04211892058049 66.32018751916728L 43.758291936473306 66.24164201439328L 43.47866087964675 66.14926439109816L 43.20389940580954 66.04327719506774L 42.93466943941838 65.92393575874068L 42.67161957904408 65.79152758609015L 42.41538353484074 65.64637166000165L 42.16657860188246 65.48881767381529L 41.92580417304547 65.3192451888839L 41.6936402950182 65.13806272017645L 41.47064627091796 64.94570675212978L 41.25735931288079 64.74264068711932L 41.05429324787032 64.52935372908213L 40.86193727982365 64.3063597049819L 40.6807548111162 64.07419582695462L 40.511182326184795 63.833421398117636L 40.35362833999844 63.58461646515936L 40.20847241390994 63.328380420956016L 40.07606424125941 63.06533056058172L 39.95672280493235 62.79610059419057L 39.85073560890194 62.52133912035335L 39.758357985606814 62.24170806352681L 39.6798124808328 61.95788107941962L 39.615288317580685 61.6705419320968L 39.56494094021138 61.3803828467322L 39.528891639966886 61.088102841977395L 39.50722726276903 60.794406045964536L 39.500000000000064 60.50000000000003L 39.50000000000001 44.50000000000003M 54.49999999999998 39.499999999999986L 60.49999999999998 39.49999999999997L 60.941387381597984 39.516257259927826L 61.380382846732154 39.56494094021129L 61.814607440941195 39.6457872197688L 62.24170806352675 39.758357985606715L 62.65937021920991 39.90204320699153L 63.06533056058168 40.0760642412593L 63.45738915337869 40.279478053347695L 63.833421398117586 40.511182326184695L 64.19138954348375 40.76992143424032L 64.52935372908209 41.054293247870206L 64.84548249770879 41.362756731577555L 65.1380627201764 41.693640295018085L 65.4055088789095 42.045150851492885L 65.64637166000162 42.41538353484063L 65.8593458071731 42.80233202207232L 66.0432771950677 43.20389940580941L 66.19716908355821 43.6179095576066L 66.32018751916726 44.04211892058037L 66.41166585433365 44.47422866743814L 66.47110836003318 44.91189715802259L 66.49819291217722 45.352752628862476L 66.49277273723104 45.79440604596446L 66.45487720759226 46.234464051195246L 66.38471168241938 46.67054193209672L 66.28265639477266 47.10027654484934L 66.14926439109814 47.52133912035327L 65.9852585342212 47.93144788402989L 65.79152758609015 48.32838042095594L 65.56912139149827 48.70998571932254L 65.31924518888388 49.07419582695456L 65.04325307903892 49.41903705772262L 64.74264068711929 49.74264068711924L 64.41903705772268 50.04325307903886L 64.07419582695462 50.319245188883826L 63.70998571932261 50.5691213914982L 63.328380420956016 50.79152758609009L 62.93144788402996 50.985258534221146L 62.52133912035335 51.14926439109809L 62.100276544849415 51.2826563947726L 61.67054193209679 51.38471168241935L 61.234464051195324 51.45487720759223L 60.79440604596453 51.49277273723101L 60.352752628862554 51.498192912177196L 59.91189715802266 51.471108360033156L 59.47422866743822 51.41166585433363L 59.04211892058044 51.32018751916724L 58.61790955760667 51.1971690835582L 58.20389940580949 51.0432771950677L 57.802332022072385 50.85934580717308L 57.41538353484069 50.64637166000162L 57.045150851492956 50.40550887890949L 56.69364029501815 50.13806272017641L 56.36275673157761 49.84548249770879L 56.05429324787026 49.5293537290821L 55.76992143424038 49.19138954348376L 55.511182326184745 48.83342139811761L 55.279478053347745 48.4573891533787L 55.07606424125935 48.065330560581685L 54.90204320699157 47.65937021920992L 54.75835798560676 47.24170806352677L 54.645787219768835 46.81460744094122L 54.56494094021132 46.380382846732175L 54.51625725992786 45.941387381598005L 54.5 45.5L 54.49999999999998 39.5" 
                    stroke-width="1" 
                    stroke="black" 
                    fill="none" 
                    stroke-linecap="round"
                    stroke-linejoin="round"
                    style="transform: scale(1, 1);"
                    />
                </svg>
            