
                <svg 
                  xmlns="http://www.w3.org/2000/svg" 
                  viewBox="0 0 125 125" 
                  width="125mm" 
                  height="125mm"
                  style="transform: scale(1, -1)">
                    <path 
                    d="M 50.385883 54.235549  L 50.754001 54.240067  L 51.121898 54.253617  L 51.489351 54.276192  L 51.856140 54.307778  L 52.222043 54.348356  L 52.586840 54.397902  L 52.950311 54.456385  L 53.312237 54.523770  L 53.672401 54.600017  L 54.030585 54.685081  L 54.386574 54.778908  L 54.740153 54.881444  L 55.091109 54.992627  L 55.439230 55.112388  L 55.784308 55.240657  L 56.126134 55.377356  L 56.464502 55.522403  L 56.799209 55.675710  L 57.130052 55.837185  L 57.456834 56.006730  L 57.779355 56.184244  L 58.097424 56.369620  L 58.410847 56.562746  L 58.719436 56.763505  L 59.023005 56.971777  L 59.321372 57.187436  L 59.614356 57.410353  L 59.901782 57.640393  L 60.183475 57.877417  L 60.459267 58.121282  L 60.728991 58.371843  L 60.992484 58.628948  L 61.249589 58.892441  L 61.500149 59.162165  L 61.744015 59.437957  L 61.981039 59.719650  L 62.211079 60.007075  L 62.433995 60.300060  L 62.649655 60.598426  L 62.857927 60.901996  L 63.058686 61.210585  L 63.251812 61.524008  L 63.437187 61.842076  L 63.614701 62.164598  L 63.784247 62.491379  L 63.945722 62.822223  L 64.099029 63.156930  L 64.244075 63.495298  L 64.380774 63.837124  L 64.509043 64.182202  L 64.628805 64.530323  L 64.739988 64.881279  L 64.842523 65.234858  L 64.936351 65.590847  L 65.021414 65.949031  L 65.097662 66.309194  L 65.165047 66.671121  L 65.223530 67.034592  L 65.273076 67.399389  L 65.313653 67.765292  L 65.345239 68.132081  L 65.367814 68.499534  L 65.381365 68.867431  L 65.385883 69.235549  L 65.379859 69.726374  L 65.361792 70.216903  L 65.331692 70.706841  L 65.289577 71.195892  L 65.235473 71.683763  L 65.169413 72.170159  L 65.091435 72.654787  L 65.001588 73.137356  L 64.899925 73.617574  L 64.786508 74.095153  L 64.661404 74.569804  L 64.524689 75.041243  L 64.376446 75.509184  L 64.216764 75.973346  L 64.045738 76.433450  L 63.863473 76.889218  L 63.670078 77.340376  L 63.465668 77.786651  L 63.250369 78.227776  L 63.024308 78.663484  L 62.787622 79.093513  L 62.540455 79.517604  L 62.282954 79.935502  L 62.015275 80.346954  L 61.737579 80.751713  L 61.450033 81.149535  L 61.152811 81.540181  L 60.846092 81.923415  L 60.530059 82.299006  L 60.204905 82.666728  L 59.870824 83.026360  L 59.528018 83.377685  L 59.176693 83.720491  L 58.817062 84.054572  L 58.449339 84.379726  L 58.073748 84.695758  L 57.690514 85.002478  L 57.299869 85.299700  L 56.902046 85.587246  L 56.497287 85.864942  L 56.085835 86.132621  L 55.667937 86.390122  L 55.243846 86.637289  L 54.813817 86.873975  L 54.378109 87.100035  L 53.936984 87.315335  L 53.490709 87.519744  L 53.039551 87.713140  L 52.583783 87.895405  L 52.123680 88.066431  L 51.659517 88.226113  L 51.191576 88.374356  L 50.720138 88.511071  L 50.245486 88.636174  L 49.767907 88.749592  L 49.287689 88.851255  L 48.805120 88.941102  L 48.320492 89.019080  L 47.834096 89.085140  L 47.346225 89.139244  L 46.857174 89.181358  L 46.367236 89.211458  L 45.876707 89.229526  L 45.385883 89.235549  L 40.385883 89.235549  L 39.895058 89.229526  L 39.404529 89.211458  L 38.914591 89.181358  L 38.425540 89.139244  L 37.937669 89.085140  L 37.451273 89.019080  L 36.966645 88.941102  L 36.484076 88.851255  L 36.003858 88.749592  L 35.526279 88.636174  L 35.051627 88.511071  L 34.580189 88.374356  L 34.112248 88.226113  L 33.648085 88.066431  L 33.187982 87.895405  L 32.732214 87.713140  L 32.281056 87.519744  L 31.834781 87.315335  L 31.393656 87.100035  L 30.957948 86.873975  L 30.527919 86.637289  L 30.103828 86.390122  L 29.685930 86.132621  L 29.274478 85.864942  L 28.869719 85.587246  L 28.471896 85.299700  L 28.081251 85.002478  L 27.698017 84.695758  L 27.322426 84.379726  L 26.954703 84.054572  L 26.595072 83.720491  L 26.243747 83.377685  L 25.900941 83.026360  L 25.566860 82.666728  L 25.241706 82.299006  L 24.925673 81.923415  L 24.618954 81.540181  L 24.321732 81.149535  L 24.034186 80.751713  L 23.756490 80.346954  L 23.488811 79.935502  L 23.231310 79.517604  L 22.984143 79.093513  L 22.747457 78.663484  L 22.521396 78.227776  L 22.306097 77.786651  L 22.101687 77.340376  L 21.908292 76.889218  L 21.726027 76.433450  L 21.555001 75.973346  L 21.395319 75.509184  L 21.247076 75.041243  L 21.110361 74.569804  L 20.985257 74.095153  L 20.871840 73.617574  L 20.770177 73.137356  L 20.680330 72.654787  L 20.602352 72.170159  L 20.536292 71.683763  L 20.482188 71.195892  L 20.440073 70.706841  L 20.409973 70.216903  L 20.391906 69.726374  L 20.385883 69.235549  L 20.390400 68.867431  L 20.403951 68.499534  L 20.426526 68.132081  L 20.458112 67.765292  L 20.498689 67.399389  L 20.548235 67.034592  L 20.606718 66.671121  L 20.674103 66.309194  L 20.750351 65.949031  L 20.835414 65.590847  L 20.929242 65.234858  L 21.031777 64.881279  L 21.142960 64.530323  L 21.262722 64.182202  L 21.390991 63.837124  L 21.527690 63.495298  L 21.672736 63.156930  L 21.826043 62.822223  L 21.987518 62.491379  L 22.157064 62.164598  L 22.334578 61.842076  L 22.519953 61.524008  L 22.713079 61.210585  L 22.913838 60.901996  L 23.122110 60.598426  L 23.337770 60.300060  L 23.560686 60.007075  L 23.790726 59.719650  L 24.027750 59.437957  L 24.271616 59.162165  L 24.522176 58.892441  L 24.779281 58.628948  L 25.042774 58.371843  L 25.312498 58.121282  L 25.588290 57.877417  L 25.869983 57.640393  L 26.157409 57.410353  L 26.450393 57.187436  L 26.748760 56.971777  L 27.052329 56.763505  L 27.360918 56.562746  L 27.674341 56.369620  L 27.992410 56.184244  L 28.314931 56.006730  L 28.641713 55.837185  L 28.972556 55.675710  L 29.307263 55.522403  L 29.645631 55.377356  L 29.987457 55.240657  L 30.332535 55.112388  L 30.680656 54.992627  L 31.031612 54.881444  L 31.385191 54.778908  L 31.741180 54.685081  L 32.099364 54.600017  L 32.459528 54.523770  L 32.821454 54.456385  L 33.184925 54.397902  L 33.549722 54.348356  L 33.915625 54.307778  L 34.282414 54.276192  L 34.649867 54.253617  L 35.017764 54.240067  L 35.385883 54.235549  L 50.385883 54.235549  M 52.385883 88.235549  L 52.667969 88.384651  L 52.950785 88.532365  L 53.234322 88.678690  L 53.518574 88.823621  L 53.803533 88.967156  L 54.089194 89.109289  L 54.375550 89.250019  L 54.662592 89.389341  L 54.950315 89.527253  L 55.238712 89.663751  L 55.527775 89.798831  L 55.817498 89.932491  L 56.107873 90.064727  L 56.398894 90.195536  L 56.690554 90.324915  L 56.982845 90.452861  L 57.275760 90.579370  L 57.569293 90.704440  L 57.863437 90.828068  L 58.158184 90.950250  L 58.453527 91.070984  L 58.749459 91.190267  L 59.045973 91.308096  L 59.343062 91.424467  L 59.640718 91.539379  L 59.938935 91.652829  L 60.237705 91.764813  L 60.537022 91.875330  L 60.836877 91.984375  L 61.137264 92.091948  L 61.438175 92.198045  L 61.739604 92.302663  L 62.041543 92.405801  L 62.343984 92.507455  L 62.646920 92.607623  L 62.950345 92.706303  L 63.254250 92.803493  L 63.558628 92.899189  L 63.863473 92.993391  L 64.168777 93.086094  L 64.474532 93.177298  L 64.780730 93.267000  L 65.087366 93.355198  L 65.394431 93.441890  L 65.701917 93.527073  L 66.009818 93.610746  L 66.318126 93.692906  L 66.626834 93.773552  L 66.935934 93.852682  L 67.245418 93.930294  L 67.555280 94.006385  L 67.865511 94.080955  L 68.176105 94.154000  L 68.487054 94.225521  L 68.798350 94.295514  L 69.109985 94.363978  L 69.421953 94.430911  L 69.734246 94.496313  L 70.046857 94.560180  L 70.359776 94.622513  L 70.672999 94.683308  L 70.986515 94.742566  L 71.300319 94.800283  L 71.614403 94.856460  L 71.744742 94.877231  L 71.875697 94.893691  L 72.007122 94.905822  L 72.138877 94.913610  L 72.270817 94.917047  L 72.402798 94.916129  L 72.534677 94.910857  L 72.666311 94.901237  L 72.797555 94.887280  L 72.928268 94.869001  L 73.058306 94.846419  L 73.187529 94.819559  L 73.315795 94.788450  L 73.442965 94.753127  L 73.568900 94.713627  L 73.693463 94.669994  L 73.816520 94.622275  L 73.937935 94.570523  L 74.057576 94.514793  L 74.175314 94.455146  L 74.291019 94.391647  L 74.404567 94.324365  L 74.515833 94.253374  L 74.624697 94.178751  L 74.731039 94.100576  L 74.834745 94.018936  L 74.935700 93.933919  L 75.033796 93.845618  L 75.128925 93.754128  L 75.220984 93.659549  L 75.309872 93.561985  L 75.395494 93.461542  L 75.477754 93.358328  L 75.556565 93.252456  L 75.631840 93.144043  L 75.703498 93.033204  L 75.771459 92.920062  L 75.835651 92.804739  L 75.896004 92.687362  L 75.952451 92.568057  L 76.004931 92.446955  L 76.053387 92.324187  L 76.097766 92.199887  L 76.138021 92.074191  L 76.174107 91.947236  L 76.205984 91.819159  L 76.233619 91.690099  L 76.256981 91.560199  L 76.276044 91.429598  L 76.290789 91.298440  L 76.301198 91.166867  L 76.307260 91.035021  L 76.308970 90.903048  L 76.306325 90.771090  L 76.299327 90.639291  L 76.287986 90.507795  L 76.272312 90.376744  L 76.252323 90.246282  L 76.228040 90.116550  L 76.199491 89.987691  L 76.166706 89.859843  L 76.129721 89.733146  L 76.088577 89.607739  L 76.043317 89.483757  L 75.886116 89.277144  L 75.727006 89.071998  L 75.566001 88.868336  L 75.403115 88.666175  L 75.238361 88.465534  L 75.071754 88.266429  L 74.903308 88.068876  L 74.733037 87.872895  L 74.560957 87.678500  L 74.387082 87.485709  L 74.211426 87.294539  L 74.034006 87.105006  L 73.854836 86.917126  L 73.673931 86.730915  L 73.491308 86.546389  L 73.306982 86.363565  L 73.120969 86.182458  L 72.933284 86.003083  L 72.743944 85.825456  L 72.552966 85.649592  L 72.360365 85.475506  L 72.166158 85.303214  L 71.970362 85.132730  L 71.772994 84.964068  L 71.574071 84.797244  L 71.373609 84.632272  L 71.171626 84.469165  L 70.968140 84.307938  L 70.763167 84.148604  L 70.556726 83.991178  L 70.348834 83.835673  L 70.139510 83.682102  L 69.928770 83.530478  L 69.716634 83.380815  L 69.503119 83.233125  L 69.288244 83.087422  L 69.072027 82.943717  L 68.854487 82.802022  L 68.635643 82.662351  L 68.415513 82.524715  L 68.194116 82.389126  L 67.971472 82.255596  L 67.747599 82.124135  L 67.522517 81.994756  L 67.296244 81.867470  L 67.068802 81.742287  L 66.840209 81.619218  L 66.610484 81.498274  L 66.379648 81.379465  L 66.147720 81.262802  L 65.914720 81.148294  L 65.680669 81.035951  L 65.445586 80.925784  L 65.209492 80.817800  L 64.972407 80.712011  L 64.734351 80.608424  L 64.495344 80.507048  L 64.255409 80.407894  L 64.014564 80.310968  L 63.772831 80.216279  L 63.530230 80.123836  L 63.286782 80.033646  L 63.042509 79.945718  L 62.797431 79.860057  M 33.385883 88.235549  L 33.106441 88.389551  L 32.826247 88.542179  L 32.545306 88.693430  L 32.263627 88.843300  L 31.981216 88.991786  L 31.698079 89.138883  L 31.414223 89.284589  L 31.129656 89.428900  L 30.844384 89.571812  L 30.558413 89.713322  L 30.271751 89.853427  L 29.984406 89.992122  L 29.696382 90.129406  L 29.407689 90.265274  L 29.118332 90.399724  L 28.828318 90.532751  L 28.537655 90.664353  L 28.246349 90.794527  L 27.954408 90.923269  L 27.661839 91.050577  L 27.368648 91.176447  L 27.074842 91.300877  L 26.780430 91.423862  L 26.485417 91.545401  L 26.189812 91.665490  L 25.893620 91.784127  L 25.596850 91.901309  L 25.299508 92.017032  L 25.001601 92.131295  L 24.703137 92.244093  L 24.404123 92.355426  L 24.104567 92.465289  L 23.804474 92.573680  L 23.503853 92.680597  L 23.202711 92.786037  L 22.901055 92.889998  L 22.598892 92.992476  L 22.296230 93.093470  L 21.993076 93.192977  L 21.689437 93.290995  L 21.385320 93.387522  L 21.080733 93.482554  L 20.775684 93.576090  L 20.470179 93.668127  L 20.164226 93.758664  L 19.857832 93.847698  L 19.551005 93.935226  L 19.243752 94.021248  L 18.936080 94.105760  L 18.627997 94.188761  L 18.319511 94.270249  L 18.010628 94.350221  L 17.701356 94.428676  L 17.391703 94.505612  L 17.081676 94.581028  L 16.771283 94.654920  L 16.460530 94.727288  L 16.149426 94.798130  L 15.837978 94.867444  L 15.526194 94.935228  L 15.214081 95.001480  L 14.901646 95.066200  L 14.588897 95.129386  L 14.275842 95.191035  L 14.145884 95.214078  L 14.015237 95.232821  L 13.884043 95.247243  L 13.752445 95.257330  L 13.620585 95.263069  L 13.488608 95.264455  L 13.356657 95.261485  L 13.224875 95.254165  L 13.093407 95.242500  L 12.962396 95.226504  L 12.831983 95.206195  L 12.702311 95.181595  L 12.573522 95.152729  L 12.445755 95.119631  L 12.319149 95.082335  L 12.193843 95.040883  L 12.069973 94.995319  L 11.947673 94.945693  L 11.827078 94.892059  L 11.708317 94.834476  L 11.591521 94.773006  L 11.476816 94.707717  L 11.364328 94.638678  L 11.254178 94.565966  L 11.146488 94.489660  L 11.041373 94.409842  L 10.938949 94.326600  L 10.839328 94.240024  L 10.742616 94.150208  L 10.648921 94.057251  L 10.558343 93.961253  L 10.470982 93.862319  L 10.386932 93.760556  L 10.306286 93.656077  L 10.229130 93.548993  L 10.155549 93.439422  L 10.085623 93.327483  L 10.019429 93.213298  L 9.957037 93.096992  L 9.898516 92.978690  L 9.843931 92.858522  L 9.793339 92.736619  L 9.746797 92.613113  L 9.704355 92.488139  L 9.666059 92.361832  L 9.631951 92.234331  L 9.602068 92.105774  L 9.576443 91.976301  L 9.555103 91.846053  L 9.538072 91.715172  L 9.525368 91.583800  L 9.517005 91.452081  L 9.512993 91.320157  L 9.513335 91.188173  L 9.518031 91.056272  L 9.527076 90.924598  L 9.540460 90.793294  L 9.558170 90.662503  L 9.580184 90.532367  L 9.606480 90.403028  L 9.637028 90.274628  L 9.671797 90.147305  L 9.710746 90.021199  L 9.753835 89.896446  L 9.907406 89.687121  L 10.062912 89.479229  L 10.220338 89.272788  L 10.379671 89.067816  L 10.540898 88.864330  L 10.704005 88.662347  L 10.868978 88.461885  L 11.035802 88.262962  L 11.204464 88.065593  L 11.374948 87.869798  L 11.547240 87.675591  L 11.721326 87.482990  L 11.897189 87.292011  L 12.074816 87.102672  L 12.254191 86.914987  L 12.435299 86.728974  L 12.618123 86.544647  L 12.802649 86.362024  L 12.988859 86.181120  L 13.176740 86.001950  L 13.366273 85.824529  L 13.557443 85.648874  L 13.750234 85.474999  L 13.944628 85.302918  L 14.140610 85.132648  L 14.338162 84.964202  L 14.537268 84.797595  L 14.737909 84.632841  L 14.940070 84.469954  L 15.143732 84.308949  L 15.348878 84.149840  L 15.555491 83.992639  L 15.763552 83.837360  L 15.973044 83.684018  L 16.183949 83.532624  L 16.396248 83.383193  L 16.609924 83.235736  L 16.824958 83.090267  L 17.041332 82.946797  L 17.259026 82.805341  L 17.478023 82.665908  L 17.698303 82.528513  L 17.919847 82.393165  L 18.142637 82.259878  L 18.366653 82.128662  L 18.591876 81.999528  L 18.818287 81.872489  L 19.045866 81.747554  L 19.274594 81.624735  L 19.504450 81.504041  L 19.735416 81.385484  L 19.967471 81.269074  L 20.200595 81.154820  L 20.434769 81.042733  L 20.669972 80.932822  L 20.906183 80.825096  L 21.143384 80.719565  L 21.381553 80.616238  L 21.620669 80.515123  L 21.860713 80.416230  L 22.101664 80.319567  L 22.343500 80.225142  L 22.586202 80.132964  L 22.829747 80.043040  M 65.385883 72.235549  L 71.385883 72.235549  L 71.621687 72.241113  L 71.856967 72.257791  L 72.091199 72.285546  L 72.323861 72.324318  L 72.554435 72.374018  L 72.782409 72.434538  L 73.007276 72.505741  L 73.228534 72.587470  L 73.445691 72.679543  L 73.658265 72.781755  L 73.865781 72.893879  L 74.067779 73.015664  L 74.263809 73.146840  L 74.453434 73.287115  L 74.636232 73.436177  L 74.811797 73.593694  L 74.979739 73.759316  L 75.139682 73.932674  L 75.291272 74.113381  L 75.434171 74.301037  L 75.568061 74.495224  L 75.692644 74.695508  L 75.807642 74.901445  L 75.912801 75.112577  L 76.007885 75.328433  L 76.092683 75.548533  L 76.167007 75.772387  L 76.230692 75.999497  L 76.283594 76.229358  L 76.325597 76.461459  L 76.356608 76.695281  L 76.376557 76.930307  L 76.385399 77.166011  L 76.383115 77.401870  L 76.369711 77.637359  L 76.345216 77.871954  L 76.309684 78.105133  L 76.263195 78.336376  L 76.205852 78.565170  L 76.137783 78.791005  L 76.059139 79.013378  L 75.970095 79.231795  L 75.870849 79.445770  L 75.761623 79.654826  L 75.642658 79.858498  L 75.514221 80.056333  L 75.376597 80.247890  L 75.230092 80.432744  L 75.075032 80.610483  L 74.911762 80.780712  L 74.740645 80.943051  L 74.562063 81.097139  L 74.376413 81.242634  L 74.184107 81.379212  L 73.985575 81.506568  L 73.781257 81.624419  L 73.571609 81.732504  L 73.357096 81.830581  L 73.138197 81.918433  L 72.915398 81.995863  L 72.689195 82.062699  L 72.460092 82.118794  L 72.228598 82.164021  L 71.995229 82.198280  L 71.094668 82.307285  L 70.193737 82.413195  L 69.292448 82.516008  L 68.390811 82.615724  L 67.488836 82.712341  L 66.586535 82.805858  L 65.683918 82.896275  L 64.780995 82.983589  L 63.877778 83.067800  L 62.974277 83.148908  L 62.070502 83.226910  L 61.166465 83.301806  L 60.262176 83.373596  L 59.357645 83.442278  L 58.452884 83.507851  L 57.547903 83.570315  L 56.642712 83.629669  L 55.737323 83.685913  L 54.831746 83.739045  L 53.925991 83.789065  L 53.020071 83.835972  L 52.113994 83.879767  L 51.207772 83.920447  L 50.301416 83.958014  L 49.394936 83.992466  L 48.488343 84.023803  L 47.581648 84.052025  L 46.674861 84.077131  L 45.767993 84.099121  L 44.861055 84.117995  L 43.954057 84.133753  L 43.047011 84.146394  L 42.139926 84.155918  L 41.232815 84.162325  L 40.325686 84.165615  L 39.418552 84.165788  L 38.511422 84.162844  L 37.604308 84.156784  L 36.697220 84.147606  L 35.790169 84.135311  L 34.883165 84.119900  L 33.976220 84.101372  L 33.069344 84.079728  L 32.162547 84.054969  L 31.255841 84.027093  L 30.349236 83.996102  L 29.442743 83.961996  L 28.536373 83.924775  L 27.630136 83.884441  L 26.724042 83.840992  L 25.818104 83.794430  L 24.912330 83.744756  L 24.006733 83.691970  L 23.101322 83.636072  L 22.196109 83.577063  L 21.291104 83.514945  L 20.386318 83.449717  L 19.481761 83.381380  L 18.577444 83.309936  L 17.673379 83.235385  L 16.769574 83.157728  L 15.866042 83.076966  L 14.962793 82.993099  L 14.059837 82.906130  L 13.825701 82.877582  L 13.593171 82.838024  L 13.362766 82.787544  L 13.134998 82.726254  L 12.910374 82.654291  L 12.689393 82.571814  L 12.472548 82.479007  L 12.260322 82.376077  L 12.053185 82.263252  L 11.851601 82.140785  L 11.656016 82.008946  L 11.466866 81.868031  L 11.284573 81.718352  L 11.109541 81.560242  L 10.942161 81.394053  L 10.782804 81.220156  L 10.631826 81.038936  L 10.489563 80.850798  L 10.356331 80.656160  L 10.232426 80.455456  L 10.118124 80.249131  L 10.013680 80.037645  L 9.919327 79.821469  L 9.835273 79.601083  L 9.761706 79.376979  L 9.698790 79.149655  L 9.646665 78.919616  L 9.605447 78.687375  L 9.575228 78.453449  L 9.556074 78.218357  L 9.548029 77.982624  L 9.551110 77.746774  L 9.565310 77.511332  L 9.590598 77.276821  L 9.626918 77.043764  L 9.674189 76.812679  L 9.732306 76.584080  L 9.801138 76.358477  L 9.880534 76.136371  L 9.970316 75.918256  L 10.070285 75.704619  L 10.180217 75.495933  L 10.299870 75.292665  L 10.428975 75.095265  L 10.567246 74.904174  L 10.714376 74.719816  L 10.870036 74.542603  L 11.033881 74.372927  L 11.205545 74.211168  L 11.384647 74.057684  L 11.570789 73.912818  L 11.763555 73.776892  L 11.962517 73.650207  L 12.167232 73.533047  L 12.377245 73.425672  L 12.592088 73.328321  L 12.811283 73.241211  L 13.034343 73.164534  L 13.260770 73.098463  L 13.490061 73.043144  L 13.721707 72.998700  L 13.955190 72.965230  L 14.189992 72.942808  L 14.425591 72.931485  L 20.423800 72.784892  M 20.385883 83.485549  L 20.429161 83.727140  L 20.473757 83.968491  L 20.519668 84.209596  L 20.566894 84.450446  L 20.615432 84.691035  L 20.665282 84.931356  L 20.716443 85.171401  L 20.768911 85.411164  L 20.822687 85.650637  L 20.877767 85.889813  L 20.934152 86.128685  L 20.991838 86.367246  L 21.050825 86.605489  L 21.111110 86.843407  L 21.172692 87.080992  L 21.235569 87.318238  L 21.299739 87.555138  L 21.365200 87.791684  L 21.431950 88.027869  L 21.499988 88.263687  L 21.569311 88.499130  L 21.639916 88.734192  L 21.711803 88.968865  L 21.784969 89.203142  L 21.859411 89.437017  L 21.935128 89.670483  L 22.012117 89.903532  L 22.090376 90.136157  L 22.169902 90.368353  L 22.250694 90.600111  L 22.332748 90.831425  L 22.416063 91.062288  L 22.500636 91.292693  L 22.586465 91.522633  L 22.673546 91.752102  L 22.761877 91.981093  L 22.851456 92.209598  L 22.942280 92.437612  L 23.034347 92.665127  L 23.127652 92.892136  L 23.222195 93.118633  L 23.317971 93.344611  L 23.414979 93.570063  L 23.513215 93.794982  L 23.612676 94.019363  L 23.713359 94.243198  L 23.815262 94.466480  L 23.918381 94.689203  L 24.022713 94.911361  L 24.128256 95.132946  L 24.235005 95.353952  L 24.342958 95.574372  L 24.452112 95.794201  L 24.562463 96.013431  L 24.674008 96.232056  L 24.786744 96.450069  L 24.900667 96.667464  L 25.015774 96.884234  L 25.132062 97.100374  L 25.249527 97.315876  L 25.368166 97.530734  L 25.487975 97.744942  L 25.608950 97.958493  L 25.731088 98.171381  L 59.731088 98.171381  L 59.857480 97.951030  L 59.982626 97.729969  L 60.106523 97.508204  L 60.229165 97.285744  L 60.350550 97.062595  L 60.470673 96.838765  L 60.589530 96.614260  L 60.707118 96.389087  L 60.823434 96.163255  L 60.938472 95.936769  L 61.052231 95.709637  L 61.164705 95.481867  L 61.275892 95.253466  L 61.385788 95.024441  L 61.494389 94.794799  L 61.601692 94.564547  L 61.707693 94.333694  L 61.812390 94.102246  L 61.915778 93.870210  L 62.017855 93.637595  L 62.118618 93.404407  L 62.218062 93.170654  L 62.316185 92.936343  L 62.412984 92.701482  L 62.508456 92.466079  L 62.602597 92.230140  L 62.695405 91.993674  L 62.786876 91.756687  L 62.877008 91.519188  L 62.965799 91.281184  L 63.053244 91.042682  L 63.139341 90.803691  L 63.224088 90.564217  L 63.307482 90.324269  L 63.389520 90.083854  L 63.470199 89.842979  L 63.549518 89.601653  L 63.627473 89.359883  L 63.704061 89.117677  L 63.779282 88.875043  L 63.853131 88.631987  L 63.925607 88.388519  L 63.996708 88.144645  L 64.066431 87.900374  L 64.134774 87.655713  L 64.201735 87.410671  L 64.267311 87.165254  L 64.331501 86.919471  L 64.394302 86.673329  L 64.455713 86.426837  L 64.515732 86.180002  L 64.574356 85.932833  L 64.631584 85.685336  L 64.687414 85.437520  L 64.741844 85.189393  L 64.794873 84.940963  L 64.846498 84.692237  L 64.896719 84.443224  L 64.945533 84.193931  L 64.992938 83.944367  L 65.038935 83.694539  L 65.083520 83.444456  L 65.126693 83.194124  L 65.168452 82.943553  M 55.385883 59.235549  L 55.619024 59.238411  L 55.852025 59.246992  L 56.084746 59.261290  L 56.317045 59.281294  L 56.548784 59.306994  L 56.779822 59.338372  L 57.010020 59.375412  L 57.239241 59.418089  L 57.467344 59.466379  L 57.694194 59.520252  L 57.919654 59.579677  L 58.143587 59.644616  L 58.365859 59.715032  L 58.586336 59.790881  L 58.804885 59.872118  L 59.021375 59.958694  L 59.235675 60.050557  L 59.447656 60.147651  L 59.657190 60.249918  L 59.864152 60.357297  L 60.068415 60.469723  L 60.269859 60.587128  L 60.468360 60.709440  L 60.663800 60.836588  L 60.856060 60.968494  L 61.045026 61.105078  L 61.230583 61.246258  L 61.412619 61.391950  L 61.591025 61.542065  L 61.765693 61.696514  L 61.936518 61.855202  L 62.103397 62.018035  L 62.266230 62.184914  L 62.424918 62.355739  L 62.579367 62.530407  L 62.729482 62.708813  L 62.875174 62.890849  L 63.016354 63.076406  L 63.152938 63.265371  L 63.284844 63.457632  L 63.411991 63.653072  L 63.534304 63.851573  L 63.651709 64.053016  L 63.764135 64.257280  L 63.871513 64.464242  L 63.973781 64.673776  L 64.070875 64.885757  L 64.162738 65.100057  L 64.249314 65.316546  L 64.330551 65.535096  L 64.406400 65.755573  L 64.476816 65.977845  L 64.541755 66.201778  L 64.601179 66.427238  L 64.655053 66.654088  L 64.703343 66.882191  L 64.746020 67.111411  L 64.783059 67.341610  L 64.814438 67.572648  L 64.840137 67.804386  L 64.860142 68.036686  L 64.874439 68.269406  L 64.883021 68.502408  L 64.885883 68.735549  L 64.885883 69.735549  L 64.882570 70.005503  L 64.872633 70.275294  L 64.856078 70.544760  L 64.832915 70.813738  L 64.803157 71.082067  L 64.766824 71.349585  L 64.723937 71.616130  L 64.674521 71.881543  L 64.618606 72.145663  L 64.556226 72.408331  L 64.487419 72.669390  L 64.412226 72.928681  L 64.330692 73.186048  L 64.242867 73.441338  L 64.148803 73.694395  L 64.048557 73.945067  L 63.942190 74.193204  L 63.829765 74.438655  L 63.711350 74.681274  L 63.587016 74.920913  L 63.456839 75.157429  L 63.320897 75.390680  L 63.179272 75.620523  L 63.032048 75.846822  L 62.879315 76.069439  L 62.721165 76.288242  L 62.557693 76.503097  L 62.388997 76.713875  L 62.215180 76.920451  L 62.036345 77.122698  L 61.852600 77.320495  L 61.664057 77.513724  L 61.470829 77.702267  L 61.273031 77.886012  L 61.070784 78.064847  L 60.864209 78.238664  L 60.653430 78.407360  L 60.438575 78.570832  L 60.219773 78.728982  L 59.997155 78.881715  L 59.770856 79.028939  L 59.541013 79.170564  L 59.307763 79.306506  L 59.071247 79.436683  L 58.831607 79.561017  L 58.588989 79.679432  L 58.343537 79.791857  L 58.095400 79.898224  L 57.844728 79.998470  L 57.591671 80.092534  L 57.336382 80.180359  L 57.079014 80.261893  L 56.819723 80.337086  L 56.558664 80.405893  L 56.295996 80.468273  L 56.031876 80.524187  L 55.766463 80.573603  L 55.499918 80.616491  L 55.232400 80.652824  L 54.964071 80.682581  L 54.695093 80.705744  L 54.425627 80.722299  L 54.155836 80.732236  L 53.885883 80.735549  L 53.615929 80.732236  L 53.346138 80.722299  L 53.076672 80.705744  L 52.807694 80.682581  L 52.539365 80.652824  L 52.271847 80.616491  L 52.005302 80.573603  L 51.739889 80.524187  L 51.475769 80.468273  L 51.213101 80.405893  L 50.952042 80.337086  L 50.692751 80.261893  L 50.435383 80.180359  L 50.180094 80.092534  L 49.927037 79.998470  L 49.676365 79.898224  L 49.428228 79.791857  L 49.182776 79.679432  L 48.940158 79.561017  L 48.700518 79.436683  L 48.464002 79.306506  L 48.230752 79.170564  L 48.000909 79.028939  L 47.774610 78.881715  L 47.551992 78.728982  L 47.333190 78.570832  L 47.118335 78.407360  L 46.907556 78.238664  L 46.700981 78.064847  L 46.498734 77.886012  L 46.300937 77.702267  L 46.107708 77.513724  L 45.919165 77.320495  L 45.735420 77.122698  L 45.556585 76.920451  L 45.382768 76.713875  L 45.214072 76.503097  L 45.050600 76.288242  L 44.892450 76.069439  L 44.739717 75.846822  L 44.592493 75.620523  L 44.450868 75.390680  L 44.314926 75.157429  L 44.184749 74.920913  L 44.060415 74.681274  L 43.942000 74.438655  L 43.829575 74.193204  L 43.723208 73.945067  L 43.622962 73.694395  L 43.528898 73.441338  L 43.441073 73.186048  L 43.359539 72.928681  L 43.284346 72.669390  L 43.215539 72.408331  L 43.153159 72.145663  L 43.097244 71.881543  L 43.047828 71.616130  L 43.004941 71.349585  L 42.968608 71.082067  L 42.938851 70.813738  L 42.915687 70.544760  L 42.899132 70.275294  L 42.889196 70.005503  L 42.885883 69.735549  L 42.885883 68.735549  L 42.888744 68.502408  L 42.897326 68.269406  L 42.911623 68.036686  L 42.931628 67.804386  L 42.957327 67.572648  L 42.988706 67.341610  L 43.025745 67.111411  L 43.068422 66.882191  L 43.116712 66.654088  L 43.170586 66.427238  L 43.230010 66.201778  L 43.294949 65.977845  L 43.365365 65.755573  L 43.441214 65.535096  L 43.522451 65.316546  L 43.609027 65.100057  L 43.700890 64.885757  L 43.797984 64.673776  L 43.900252 64.464242  L 44.007630 64.257280  L 44.120056 64.053016  L 44.237461 63.851573  L 44.359774 63.653072  L 44.486921 63.457632  L 44.618827 63.265371  L 44.755411 63.076406  L 44.896591 62.890849  L 45.042283 62.708813  L 45.192398 62.530407  L 45.346847 62.355739  L 45.505535 62.184914  L 45.668368 62.018035  L 45.835247 61.855202  L 46.006072 61.696514  L 46.180741 61.542065  L 46.359146 61.391950  L 46.541182 61.246258  L 46.726739 61.105078  L 46.915705 60.968494  L 47.107965 60.836588  L 47.303405 60.709440  L 47.501906 60.587128  L 47.703350 60.469723  L 47.907614 60.357297  L 48.114575 60.249918  L 48.324109 60.147651  L 48.536090 60.050557  L 48.750390 59.958694  L 48.966880 59.872118  L 49.185429 59.790881  L 49.405906 59.715032  L 49.628178 59.644616  L 49.852111 59.579677  L 50.077571 59.520252  L 50.304421 59.466379  L 50.532524 59.418089  L 50.761745 59.375412  L 50.991943 59.338372  L 51.222981 59.306994  L 51.454720 59.281294  L 51.687019 59.261290  L 51.919740 59.246992  L 52.152741 59.238411  L 52.385883 59.235549  L 56.385883 59.235549  M 37.385883 71.735549  L 37.382544 71.918223  L 37.372535 72.100652  L 37.355867 72.282594  L 37.332562 72.463806  L 37.302653 72.644045  L 37.266179 72.823072  L 37.223189 73.000646  L 37.173739 73.176531  L 37.117897 73.350492  L 37.055736 73.522296  L 36.987341 73.691715  L 36.912801 73.858522  L 36.832216 74.022494  L 36.745695 74.183413  L 36.653352 74.341063  L 36.555312 74.495234  L 36.451704 74.645721  L 36.342667 74.792321  L 36.228347 74.934841  L 36.108897 75.073088  L 35.984475 75.206879  L 35.855249 75.336035  L 35.721390 75.460383  L 35.583078 75.579758  L 35.440496 75.694001  L 35.293836 75.802957  L 35.143293 75.906483  L 34.989068 76.004440  L 34.831368 76.096696  L 34.670402 76.183130  L 34.506386 76.263625  L 34.339538 76.338074  L 34.170082 76.406377  L 33.998244 76.468444  L 33.824252 76.524191  L 33.648340 76.573545  L 33.470743 76.616438  L 33.291697 76.652815  L 33.111441 76.682626  L 32.930217 76.705831  L 32.748266 76.722400  L 32.565831 76.732310  L 32.383155 76.735549  L 32.200484 76.732111  L 32.018060 76.722002  L 31.836127 76.705234  L 31.654928 76.681831  L 31.474705 76.651824  L 31.295699 76.615252  L 31.118148 76.572165  L 30.942290 76.522619  L 30.768360 76.466682  L 30.596589 76.404428  L 30.427207 76.335940  L 30.260441 76.261309  L 30.096513 76.180635  L 29.935641 76.094026  L 29.778042 76.001597  L 29.623924 75.903473  L 29.473494 75.799783  L 29.326953 75.690666  L 29.184496 75.576269  L 29.046314 75.456743  L 28.912591 75.332248  L 28.807541 75.229437  L 28.703874 75.125232  L 28.601609 75.019651  L 28.500763 74.912712  L 28.401356 74.804436  L 28.303405 74.694841  L 28.206926 74.583947  L 28.111938 74.471774  L 28.018458 74.358341  L 27.926501 74.243670  L 27.836085 74.127779  L 27.747225 74.010692  L 27.659938 73.892427  L 27.574240 73.773006  L 27.490144 73.652451  L 27.407667 73.530783  L 27.326823 73.408024  L 27.247627 73.284195  L 27.170092 73.159320  L 27.094233 73.033419  L 27.020063 72.906516  L 26.947595 72.778633  L 26.876842 72.649793  L 26.807818 72.520020  L 26.740534 72.389336  L 26.675002 72.257764  L 26.611233 72.125328  L 26.549241 71.992052  L 26.489034 71.857960  L 26.430625 71.723075  L 26.374023 71.587422  L 26.319239 71.451024  L 26.266283 71.313907  L 26.215163 71.176094  L 26.165890 71.037610  L 26.118471 70.898481  L 26.072916 70.758730  L 26.029232 70.618383  L 25.987428 70.477464  L 25.947510 70.336000  L 25.909486 70.194015  L 25.873362 70.051535  L 25.839146 69.908584  L 25.806843 69.765189  L 25.776459 69.621376  L 25.747999 69.477169  L 25.721469 69.332595  L 25.696873 69.187679  L 25.674215 69.042447  L 25.653500 68.896926  L 25.634732 68.751141  L 25.617913 68.605118  L 25.603047 68.458883  L 25.590136 68.312463  L 25.579183 68.165883  L 25.570190 68.019170  L 25.563158 67.872350  L 25.558088 67.725449  L 25.554982 67.578494  L 25.553839 67.431510  L 25.554661 67.284524  L 25.557447 67.137562  L 25.562196 66.990650  L 25.568908 66.843815  L 25.578008 66.706403  L 25.590890 66.569294  L 25.607542 66.432591  L 25.627953 66.296399  L 25.652107 66.160821  L 25.679986 66.025959  L 25.711568 65.891917  L 25.746830 65.758795  L 25.785744 65.626694  L 25.828282 65.495715  L 25.874411 65.365958  L 25.924096 65.237520  L 25.977299 65.110499  L 26.033980 64.984992  L 26.094096 64.861093  L 26.157602 64.738896  L 26.224449 64.618495  L 26.294586 64.499981  L 26.367960 64.383443  L 26.444516 64.268970  L 26.524196 64.156649  L 26.606939 64.046565  L 26.692682 63.938801  L 26.781360 63.833440  L 26.872906 63.730561  L 26.967251 63.630242  L 27.064323 63.532559  L 27.164049 63.437587  L 27.266352 63.345397  L 27.371155 63.256059  L 27.478379 63.169642  L 27.587942 63.086210  L 27.699761 63.005828  L 27.813751 62.928555  L 27.929827 62.854451  L 28.047899 62.783572  L 28.167878 62.715972  L 28.289674 62.651701  L 28.413193 62.590809  L 28.538342 62.533342  L 28.665027 62.479343  L 28.793151 62.428853  L 28.922616 62.381911  L 29.053326 62.338553  L 29.185180 62.298811  L 29.318078 62.262715  L 29.451920 62.230292  L 29.586604 62.201568  L 29.722028 62.176564  L 29.858089 62.155300  L 29.994685 62.137790  L 30.131710 62.124049  L 30.269063 62.114087  L 30.406637 62.107911  L 30.544330 62.105526  L 30.682035 62.106935  L 30.819650 62.112135  L 30.957070 62.121123  L 31.094189 62.133892  L 31.230905 62.150433  L 31.367114 62.170732  L 31.502712 62.194775  L 31.637597 62.222544  L 31.771665 62.254016  M 36.385883 71.735549  L 36.386264 71.772359  L 36.384839 71.809143  L 36.381610 71.845813  L 36.376587 71.882281  L 36.369780 71.918458  L 36.361206 71.954257  L 36.350885 71.989593  L 36.338844 72.024379  L 36.325109 72.058533  L 36.309716 72.091972  L 36.292700 72.124615  L 36.274104 72.156384  L 36.253970 72.187203  L 36.232349 72.216996  L 36.209292 72.245692  L 36.184855 72.273223  L 36.159096 72.299521  L 36.132078 72.324524  L 36.103865 72.348170  L 36.074527 72.370404  L 36.044132 72.391172  L 36.012756 72.410423  L 35.980472 72.428112  L 35.947359 72.444195  L 35.913497 72.458634  L 35.878968 72.471394  L 35.843854 72.482444  L 35.808240 72.491758  L 35.772212 72.499314  L 35.735856 72.505092  L 35.699261 72.509080  L 35.662514 72.511267  L 35.625704 72.511649  L 35.588920 72.510223  L 35.552250 72.506995  L 35.515782 72.501971  L 35.479605 72.495164  L 35.443806 72.486590  L 35.408470 72.476270  L 35.373684 72.464228  L 35.339530 72.450494  L 35.306091 72.435101  L 35.273448 72.418085  L 35.241679 72.399488  L 35.210861 72.379355  L 35.181068 72.357734  L 35.152371 72.334677  L 35.124841 72.310239  L 35.098542 72.284480  L 35.073540 72.257462  L 35.049893 72.229250  L 35.027659 72.199911  L 35.006891 72.169517  L 34.987640 72.138140  L 34.969952 72.105856  L 34.953868 72.072744  L 34.939429 72.038882  L 34.926669 72.004352  L 34.915619 71.969238  L 34.906305 71.933624  L 34.898750 71.897596  L 34.892971 71.861241  L 34.888983 71.824645  L 34.886796 71.787899  L 34.712299 66.790944  L 34.711917 66.754135  L 34.713342 66.717350  L 34.716571 66.680680  L 34.721595 66.644213  L 34.728402 66.608036  L 34.736976 66.572236  L 34.747296 66.536901  L 34.759338 66.502114  L 34.773072 66.467960  L 34.788465 66.434522  L 34.805481 66.401878  L 34.824078 66.370109  L 34.844211 66.339291  L 34.865832 66.309498  L 34.888889 66.280802  L 34.913327 66.253271  L 34.939085 66.226973  L 34.966104 66.201970  L 34.994316 66.178323  L 35.023655 66.156089  L 35.054049 66.135322  L 35.085426 66.116070  L 35.117709 66.098382  L 35.150822 66.082299  L 35.184684 66.067860  L 35.219213 66.055100  L 35.254328 66.044049  L 35.289942 66.034735  L 35.325970 66.027180  L 35.362325 66.021402  L 35.398920 66.017414  L 35.435667 66.015227  L 35.472477 66.014845  L 35.509261 66.016270  L 35.545931 66.019499  L 35.582399 66.024523  L 35.618576 66.031330  L 35.654375 66.039904  L 35.689711 66.050224  L 35.724497 66.062266  L 35.758651 66.076000  L 35.792090 66.091393  L 35.824733 66.108409  L 35.856502 66.127006  L 35.887321 66.147139  L 35.917114 66.168760  L 35.945810 66.191817  L 35.973341 66.216255  L 35.999639 66.242013  L 36.024642 66.269031  L 36.048288 66.297244  L 36.070522 66.326583  L 36.091290 66.356977  L 36.110541 66.388354  L 36.128230 66.420637  L 36.144313 66.453750  L 36.158752 66.487612  L 36.171512 66.522141  L 36.182562 66.557255  L 36.191876 66.592870  L 36.199432 66.628898  L 36.205210 66.665253  L 36.209198 66.701848  L 36.211385 66.738595  L 36.385883 71.735549  L 36.302124 69.337011  L 34.829881 70.187011  M 37.385883 74.735549  L 28.725628 79.735549  M 47.385883 71.735549  L 47.389221 71.918223  L 47.399230 72.100652  L 47.415898 72.282594  L 47.439203 72.463806  L 47.469112 72.644045  L 47.505586 72.823072  L 47.548576 73.000646  L 47.598026 73.176531  L 47.653868 73.350492  L 47.716029 73.522296  L 47.784424 73.691715  L 47.858964 73.858522  L 47.939549 74.022494  L 48.026070 74.183413  L 48.118413 74.341063  L 48.216453 74.495234  L 48.320061 74.645721  L 48.429098 74.792321  L 48.543418 74.934841  L 48.662868 75.073088  L 48.787290 75.206879  L 48.916516 75.336035  L 49.050375 75.460383  L 49.188687 75.579758  L 49.331269 75.694001  L 49.477929 75.802957  L 49.628472 75.906483  L 49.782697 76.004440  L 49.940397 76.096696  L 50.101363 76.183130  L 50.265379 76.263625  L 50.432227 76.338074  L 50.601683 76.406377  L 50.773521 76.468444  L 50.947513 76.524191  L 51.123425 76.573545  L 51.301022 76.616438  L 51.480068 76.652815  L 51.660324 76.682626  L 51.841548 76.705831  L 52.023499 76.722400  L 52.205934 76.732310  L 52.388610 76.735549  L 52.571281 76.732111  L 52.753705 76.722002  L 52.935638 76.705234  L 53.116837 76.681831  L 53.297060 76.651824  L 53.476066 76.615252  L 53.653617 76.572165  L 53.829475 76.522619  L 54.003405 76.466682  L 54.175176 76.404428  L 54.344558 76.335940  L 54.511324 76.261309  L 54.675252 76.180635  L 54.836124 76.094026  L 54.993723 76.001597  L 55.147841 75.903473  L 55.298271 75.799783  L 55.444812 75.690666  L 55.587269 75.576269  L 55.725451 75.456743  L 55.859174 75.332248  L 55.964224 75.229437  L 56.067891 75.125232  L 56.170156 75.019651  L 56.271002 74.912712  L 56.370409 74.804436  L 56.468360 74.694841  L 56.564839 74.583947  L 56.659827 74.471774  L 56.753308 74.358341  L 56.845264 74.243670  L 56.935680 74.127779  L 57.024540 74.010692  L 57.111827 73.892427  L 57.197525 73.773006  L 57.281621 73.652451  L 57.364098 73.530783  L 57.444942 73.408024  L 57.524138 73.284195  L 57.601673 73.159320  L 57.677532 73.033419  L 57.751702 72.906516  L 57.824170 72.778633  L 57.894923 72.649793  L 57.963947 72.520020  L 58.031231 72.389336  L 58.096763 72.257764  L 58.160532 72.125328  L 58.222524 71.992052  L 58.282731 71.857960  L 58.341140 71.723075  L 58.397742 71.587422  L 58.452526 71.451024  L 58.505482 71.313907  L 58.556602 71.176094  L 58.605875 71.037610  L 58.653294 70.898481  L 58.698849 70.758730  L 58.742533 70.618383  L 58.784337 70.477464  L 58.824255 70.336000  L 58.862279 70.194015  L 58.898403 70.051535  L 58.932619 69.908584  L 58.964922 69.765189  L 58.995306 69.621376  L 59.023766 69.477169  L 59.050296 69.332595  L 59.074892 69.187679  L 59.097550 69.042447  L 59.118265 68.896926  L 59.137033 68.751141  L 59.153852 68.605118  L 59.168718 68.458883  L 59.181629 68.312463  L 59.192582 68.165883  L 59.201575 68.019170  L 59.208607 67.872350  L 59.213677 67.725449  L 59.216783 67.578494  L 59.217926 67.431510  L 59.217104 67.284524  L 59.214318 67.137562  L 59.209569 66.990650  L 59.202857 66.843815  L 59.193757 66.706403  L 59.180875 66.569294  L 59.164223 66.432591  L 59.143812 66.296399  L 59.119658 66.160821  L 59.091779 66.025959  L 59.060197 65.891917  L 59.024935 65.758795  L 58.986021 65.626694  L 58.943483 65.495715  L 58.897354 65.365958  L 58.847669 65.237520  L 58.794466 65.110499  L 58.737785 64.984992  L 58.677669 64.861093  L 58.614163 64.738896  L 58.547316 64.618495  L 58.477179 64.499981  L 58.403805 64.383443  L 58.327249 64.268970  L 58.247569 64.156649  L 58.164826 64.046565  L 58.079083 63.938801  L 57.990405 63.833440  L 57.898859 63.730561  L 57.804514 63.630242  L 57.707442 63.532559  L 57.607716 63.437587  L 57.505413 63.345397  L 57.400610 63.256059  L 57.293386 63.169642  L 57.183823 63.086210  L 57.072004 63.005828  L 56.958014 62.928555  L 56.841939 62.854451  L 56.723866 62.783572  L 56.603887 62.715972  L 56.482091 62.651701  L 56.358572 62.590809  L 56.233423 62.533342  L 56.106738 62.479343  L 55.978614 62.428853  L 55.849149 62.381911  L 55.718439 62.338553  L 55.586586 62.298811  L 55.453687 62.262715  L 55.319845 62.230292  L 55.185161 62.201568  L 55.049737 62.176564  L 54.913676 62.155300  L 54.777080 62.137790  L 54.640055 62.124049  L 54.502702 62.114087  L 54.365128 62.107911  L 54.227435 62.105526  L 54.089730 62.106935  L 53.952115 62.112135  L 53.814695 62.121123  L 53.677576 62.133892  L 53.540860 62.150433  L 53.404651 62.170732  L 53.269053 62.194775  L 53.134169 62.222544  L 53.000100 62.254016  M 48.385883 71.735549  L 48.385501 71.772359  L 48.386926 71.809143  L 48.390155 71.845813  L 48.395178 71.882281  L 48.401985 71.918458  L 48.410559 71.954257  L 48.420880 71.989593  L 48.432921 72.024379  L 48.446656 72.058533  L 48.462049 72.091972  L 48.479065 72.124615  L 48.497661 72.156384  L 48.517795 72.187203  L 48.539416 72.216996  L 48.562473 72.245692  L 48.586910 72.273223  L 48.612669 72.299521  L 48.639687 72.324524  L 48.667900 72.348170  L 48.697238 72.370404  L 48.727633 72.391172  L 48.759009 72.410423  L 48.791293 72.428112  L 48.824406 72.444195  L 48.858268 72.458634  L 48.892797 72.471394  L 48.927911 72.482444  L 48.963525 72.491758  L 48.999553 72.499314  L 49.035909 72.505092  L 49.072504 72.509080  L 49.109251 72.511267  L 49.146061 72.511649  L 49.182845 72.510223  L 49.219515 72.506995  L 49.255983 72.501971  L 49.292160 72.495164  L 49.327959 72.486590  L 49.363295 72.476270  L 49.398081 72.464228  L 49.432235 72.450494  L 49.465674 72.435101  L 49.498317 72.418085  L 49.530086 72.399488  L 49.560904 72.379355  L 49.590697 72.357734  L 49.619394 72.334677  L 49.646924 72.310239  L 49.673223 72.284480  L 49.698225 72.257462  L 49.721872 72.229250  L 49.744106 72.199911  L 49.764874 72.169517  L 49.784125 72.138140  L 49.801813 72.105856  L 49.817897 72.072744  L 49.832336 72.038882  L 49.845096 72.004352  L 49.856146 71.969238  L 49.865460 71.933624  L 49.873015 71.897596  L 49.878794 71.861241  L 49.882782 71.824645  L 49.884969 71.787899  L 50.059466 66.790944  L 50.059848 66.754135  L 50.058423 66.717350  L 50.055194 66.680680  L 50.050170 66.644213  L 50.043363 66.608036  L 50.034789 66.572236  L 50.024469 66.536901  L 50.012427 66.502114  L 49.998693 66.467960  L 49.983300 66.434522  L 49.966284 66.401878  L 49.947687 66.370109  L 49.927554 66.339291  L 49.905933 66.309498  L 49.882876 66.280802  L 49.858438 66.253271  L 49.832680 66.226973  L 49.805661 66.201970  L 49.777449 66.178323  L 49.748110 66.156089  L 49.717716 66.135322  L 49.686339 66.116070  L 49.654056 66.098382  L 49.620943 66.082299  L 49.587081 66.067860  L 49.552552 66.055100  L 49.517437 66.044049  L 49.481823 66.034735  L 49.445795 66.027180  L 49.409440 66.021402  L 49.372845 66.017414  L 49.336098 66.015227  L 49.299288 66.014845  L 49.262504 66.016270  L 49.225834 66.019499  L 49.189366 66.024523  L 49.153189 66.031330  L 49.117390 66.039904  L 49.082054 66.050224  L 49.047268 66.062266  L 49.013114 66.076000  L 48.979675 66.091393  L 48.947032 66.108409  L 48.915263 66.127006  L 48.884444 66.147139  L 48.854651 66.168760  L 48.825955 66.191817  L 48.798424 66.216255  L 48.772126 66.242013  L 48.747123 66.269031  L 48.723477 66.297244  L 48.701243 66.326583  L 48.680475 66.356977  L 48.661224 66.388354  L 48.643535 66.420637  L 48.627452 66.453750  L 48.613013 66.487612  L 48.600253 66.522141  L 48.589203 66.557255  L 48.579889 66.592870  L 48.572333 66.628898  L 48.566555 66.665253  L 48.562567 66.701848  L 48.560380 66.738595  L 48.385883 71.735549  L 48.459171 69.636829  L 49.916356 70.512393  M 47.385883 74.735549  L 56.046137 79.735549  M 42.385883 63.735549  L 42.387763 63.704947  L 42.393375 63.674804  L 42.402634 63.645576  L 42.415402 63.617700  L 42.431486 63.591597  L 42.450645 63.567660  L 42.472589 63.546247  L 42.496990 63.527682  L 42.523480 63.512243  L 42.551660 63.500163  L 42.581107 63.491624  L 42.611378 63.486753  L 42.642018 63.485625  L 42.672565 63.488255  L 42.702561 63.494605  L 42.731553 63.504579  L 42.759107 63.518028  L 42.784807 63.534747  L 42.808268 63.554488  L 42.829135 63.576951  L 42.847096 63.601800  L 42.861880 63.628661  L 42.873265 63.657129  L 42.881079 63.686777  L 42.885205 63.717158  L 42.885581 63.747816  L 42.882202 63.778290  L 42.875118 63.808120  L 42.864435 63.836860  L 42.850315 63.864075  L 42.832969 63.889357  L 42.812659 63.912326  L 42.789690 63.932636  L 42.764408 63.949981  L 42.737193 63.964102  L 42.708454 63.974784  L 42.678623 63.981869  L 42.648149 63.985248  L 42.617491 63.984872  L 42.587110 63.980746  L 42.557462 63.972931  L 42.528994 63.961547  L 42.502133 63.946763  L 42.477284 63.928802  L 42.454821 63.907934  L 42.435081 63.884474  L 42.418361 63.858774  L 42.404913 63.831220  L 42.394938 63.802228  L 42.388588 63.772232  L 42.385958 63.741685  L 42.387086 63.711045  L 42.391957 63.680774  L 42.400496 63.651327  L 42.412576 63.623146  L 42.428015 63.596657  L 42.446580 63.572256  L 42.467993 63.550312  L 42.491930 63.531153  L 42.518033 63.515069  L 42.545909 63.502301  L 42.575137 63.493042  L 42.605280 63.487429  L 42.635883 63.485549  L 42.635883 60.485549  L 42.623212 60.440388  L 42.609486 60.395537  L 42.594713 60.351020  L 42.578899 60.306861  L 42.562054 60.263086  L 42.544187 60.219717  L 42.525308 60.176780  L 42.505427 60.134297  L 42.484556 60.092292  L 42.462705 60.050788  L 42.439887 60.009807  L 42.416114 59.969374  L 42.391400 59.929508  L 42.365757 59.890234  L 42.339200 59.851571  L 42.311745 59.813542  L 42.283404 59.776167  L 42.254196 59.739467  L 42.224134 59.703462  L 42.193237 59.668172  L 42.161520 59.633616  L 42.129002 59.599814  L 42.095700 59.566783  L 42.061632 59.534542  L 42.026818 59.503110  L 41.991277 59.472502  L 41.955027 59.442736  L 41.918089 59.413828  L 41.880484 59.385795  L 41.842231 59.358651  L 41.803353 59.332412  L 41.763869 59.307091  L 41.723803 59.282704  L 41.683176 59.259262  L 41.642011 59.236780  L 41.600329 59.215270  L 41.558155 59.194743  L 41.515511 59.175210  L 41.472420 59.156683  L 41.428907 59.139172  L 41.384995 59.122685  L 41.340709 59.107233  L 41.296072 59.092824  L 41.251110 59.079466  L 41.205847 59.067166  L 41.160308 59.055930  L 41.114518 59.045766  L 41.068502 59.036678  L 41.022286 59.028671  L 40.975894 59.021751  L 40.929353 59.015921  L 40.882689 59.011183  L 40.835926 59.007541  L 40.789090 59.004997  L 40.742208 59.003552  L 40.695304 59.003206  L 40.648406 59.003961  L 40.601538 59.005815  L 40.554726 59.008768  L 40.507997 59.012818  L 40.461375 59.017962  L 40.414887 59.024199  L 40.368558 59.031524  L 40.322413 59.039933  L 38.849972 59.326147  L 38.799776 59.336573  L 38.749863 59.348283  L 38.700268 59.361268  L 38.651021 59.375520  L 38.602155 59.391030  L 38.553704 59.407787  L 38.505697 59.425781  L 38.458168 59.444999  L 38.411147 59.465429  L 38.364665 59.487058  L 38.318753 59.509871  L 38.273440 59.533853  L 38.228757 59.558989  L 38.184733 59.585262  L 38.141397 59.612654  L 38.098778 59.641149  L 38.056902 59.670726  L 38.015799 59.701367  L 37.975494 59.733052  L 37.936015 59.765759  L 37.897387 59.799467  L 37.859636 59.834155  L 37.822786 59.869798  L 37.786862 59.906375  L 37.751887 59.943860  L 37.717885 59.982229  L 37.684877 60.021458  L 37.652886 60.061519  L 37.621932 60.102388  L 37.592036 60.144036  L 37.563217 60.186437  L 37.535494 60.229562  L 37.508886 60.273384  L 37.483409 60.317874  L 37.459082 60.363002  L 37.435919 60.408739  L 37.413936 60.455054  L 37.393148 60.501918  L 37.373567 60.549299  L 37.355207 60.597167  L 37.338081 60.645489  L 37.322198 60.694235  L 37.307570 60.743371  L 37.294207 60.792866  L 37.282116 60.842688  L 37.271307 60.892803  L 37.261785 60.943179  L 37.253558 60.993782  L 37.246631 61.044580  L 37.241008 61.095538  L 37.236693 61.146624  L 37.233689 61.197803  L 37.231997 61.249043  L 37.231620 61.300309  L 37.232557 61.351568  L 37.234807 61.402786  L 37.238369 61.453930  L 37.243241 61.504966  L 37.249420 61.555860  L 37.256901 61.606579  L 37.265679 61.657089  L 37.275750 61.707358  L 37.287105 61.757352  L 37.299738 61.807039  M 42.635883 60.485549  L 42.645772 60.439699  L 42.656734 60.394093  L 42.668763 60.348757  L 42.681851 60.303716  L 42.695992 60.258994  L 42.711178 60.214615  L 42.727401 60.170605  L 42.744651 60.126988  L 42.762919 60.083787  L 42.782195 60.041026  L 42.802469 59.998730  L 42.823729 59.956920  L 42.845964 59.915620  L 42.869161 59.874853  L 42.893308 59.834642  L 42.918391 59.795007  L 42.944396 59.755972  L 42.971310 59.717557  L 42.999118 59.679784  L 43.027803 59.642674  L 43.057351 59.606246  L 43.087745 59.570521  L 43.118968 59.535519  L 43.151004 59.501259  L 43.183834 59.467760  L 43.217441 59.435039  L 43.251806 59.403116  L 43.286910 59.372007  L 43.322734 59.341730  L 43.359258 59.312302  L 43.396462 59.283738  L 43.434326 59.256054  L 43.472829 59.229266  L 43.511949 59.203388  L 43.551665 59.178435  L 43.591956 59.154420  L 43.632798 59.131357  L 43.674170 59.109257  L 43.716050 59.088134  L 43.758412 59.067999  L 43.801236 59.048863  L 43.844496 59.030736  L 43.888170 59.013629  L 43.932233 58.997550  L 43.976661 58.982510  L 44.021429 58.968515  L 44.066513 58.955574  L 44.111888 58.943694  L 44.157529 58.932881  L 44.203412 58.923141  L 44.249510 58.914481  L 44.295798 58.906903  L 44.342252 58.900413  L 44.388845 58.895015  L 44.435552 58.890710  L 44.482346 58.887502  L 44.529204 58.885392  L 44.576097 58.884382  L 44.623002 58.884471  L 44.669891 58.885661  L 44.716740 58.887949  L 44.763522 58.891336  L 44.810212 58.895819  L 44.856784 58.901395  L 46.343952 59.097185  L 46.394691 59.104527  L 46.445225 59.113168  L 46.495521 59.123102  L 46.545546 59.134321  L 46.595267 59.146818  L 46.644651 59.160586  L 46.693667 59.175616  L 46.742281 59.191896  L 46.790461 59.209418  L 46.838177 59.228168  L 46.885396 59.248136  L 46.932088 59.269307  L 46.978222 59.291668  L 47.023768 59.315205  L 47.068696 59.339900  L 47.112975 59.365740  L 47.156578 59.392706  L 47.199476 59.420780  L 47.241639 59.449945  L 47.283042 59.480181  L 47.323655 59.511469  L 47.363454 59.543787  L 47.402411 59.577114  L 47.440501 59.611429  L 47.477699 59.646710  L 47.513980 59.682932  L 47.549321 59.720072  L 47.583698 59.758105  L 47.617090 59.797008  L 47.649473 59.836753  L 47.680826 59.877316  L 47.711130 59.918669  L 47.740364 59.960784  L 47.768509 60.003636  L 47.795546 60.047195  L 47.821458 60.091432  L 47.846227 60.136319  L 47.869838 60.181826  L 47.892275 60.227924  L 47.913522 60.274581  L 47.933567 60.321768  L 47.952396 60.369453  L 47.969996 60.417605  L 47.986356 60.466192  L 48.001466 60.515182  L 48.015314 60.564544  L 48.027893 60.614245  L 48.039194 60.664251  L 48.049210 60.714531  L 48.057933 60.765051  L 48.065359 60.815778  L 48.071482 60.866679  L 48.076299 60.917720  L 48.079805 60.968867  L 48.081999 61.020088  L 48.082880 61.071348  L 48.082447 61.122614  L 48.080699 61.173852  L 48.077639 61.225028  L 48.073269 61.276109  L 48.067590 61.327061  L 48.060607 61.377851  L 48.052325 61.428445  L 48.042749 61.478810  M 40.385883 54.235549  L 40.365913 54.310662  L 40.346235 54.385851  L 40.326849 54.461116  L 40.307756 54.536456  L 40.288956 54.611870  L 40.270449 54.687356  L 40.252236 54.762913  L 40.234317 54.838541  L 40.216691 54.914238  L 40.199360 54.990002  L 40.182323 55.065834  L 40.165581 55.141731  L 40.149135 55.217692  L 40.132983 55.293717  L 40.117127 55.369804  L 40.101567 55.445953  L 40.086303 55.522161  L 40.071335 55.598427  L 40.056664 55.674752  L 40.042289 55.751132  L 40.028212 55.827569  L 40.014431 55.904059  L 40.000948 55.980602  L 39.987762 56.057197  L 39.974874 56.133843  L 39.962285 56.210538  L 39.949993 56.287281  L 39.937999 56.364072  L 39.926304 56.440909  L 39.914908 56.517790  L 39.903811 56.594716  L 39.893012 56.671683  L 39.882513 56.748693  L 39.872313 56.825742  L 39.862413 56.902831  L 39.852812 56.979957  L 39.843511 57.057120  L 39.834510 57.134319  L 39.825809 57.211552  L 39.817408 57.288818  L 39.809308 57.366116  L 39.801508 57.443446  L 39.794009 57.520805  L 39.786810 57.598192  L 39.779912 57.675607  L 39.773315 57.753048  L 39.767019 57.830515  L 39.761024 57.908005  L 39.755330 57.985517  L 39.749938 58.063052  L 39.744847 58.140607  L 39.740057 58.218180  L 39.735569 58.295772  L 39.731382 58.373381  L 39.727497 58.451006  L 39.723913 58.528645  L 39.720632 58.606297  L 39.717652 58.683962  L 39.714974 58.761637  L 39.712598 58.839322  L 39.710523 58.917016  L 39.708751 58.994718  L 39.707281 59.072425  L 39.706112 59.150138  M 46.385883 54.235549  L 46.821661 59.216523  M 44.385883 52.235549  L 44.498284 52.299934  L 44.611122 52.363552  L 44.724391 52.426398  L 44.838086 52.488471  L 44.952201 52.549768  L 45.066732 52.610285  L 45.181672 52.670019  L 45.297017 52.728969  L 45.412761 52.787131  L 45.528900 52.844502  L 45.645426 52.901081  L 45.762336 52.956863  L 45.879623 53.011847  L 45.997282 53.066031  L 46.115308 53.119411  L 46.233695 53.171985  L 46.352438 53.223750  L 46.471531 53.274705  L 46.590969 53.324847  L 46.710746 53.374174  L 46.830856 53.422682  L 46.951294 53.470371  L 47.072054 53.517237  L 47.193132 53.563279  L 47.314520 53.608495  L 47.436214 53.652882  L 47.558207 53.696438  L 47.680495 53.739161  L 47.803071 53.781050  L 47.925929 53.822102  L 48.049065 53.862316  L 48.172472 53.901689  L 48.296145 53.940220  L 48.420077 53.977906  L 48.544264 54.014747  L 48.668699 54.050741  L 48.793376 54.085885  L 48.918290 54.120179  L 49.043435 54.153620  L 49.168805 54.186207  L 49.294394 54.217938  L 49.420197 54.248813  L 49.546207 54.278829  L 49.672419 54.307986  L 49.798827 54.336281  L 49.925425 54.363714  L 50.052206 54.390283  L 50.179166 54.415987  L 50.306299 54.440825  L 50.433597 54.464796  L 50.561057 54.487898  L 50.688670 54.510131  L 50.816433 54.531493  L 50.944338 54.551983  L 51.072379 54.571601  L 51.200552 54.590346  L 51.328849 54.608217  L 51.457265 54.625212  L 51.585794 54.641332  L 51.714430 54.656574  L 51.843167 54.670940  L 51.971999 54.684427  L 52.100920 54.697036  L 52.229923 54.708766  L 52.279722 54.583298  L 52.327978 54.457228  L 52.374683 54.330576  L 52.419830 54.203360  L 52.463413 54.075600  L 52.505424 53.947314  L 52.545858 53.818523  L 52.584709 53.689245  L 52.621970 53.559500  L 52.657636 53.429307  L 52.691702 53.298687  L 52.724163 53.167658  L 52.755013 53.036241  L 52.784248 52.904456  L 52.811863 52.772321  L 52.837855 52.639858  L 52.862220 52.507085  L 52.884953 52.374024  L 52.906052 52.240693  L 52.925513 52.107114  L 52.943334 51.973306  L 52.959511 51.839290  L 52.974042 51.705084  L 52.986925 51.570711  L 52.998158 51.436190  L 53.007740 51.301541  L 53.015668 51.166785  L 53.021943 51.031941  L 53.026562 50.897031  L 53.029525 50.762074  L 53.030832 50.627091  L 53.030482 50.492101  L 53.028476 50.357127  L 53.024814 50.222187  L 53.019495 50.087303  L 53.012523 49.952493  L 53.003896 49.817780  L 52.993617 49.683182  L 52.981687 49.548721  L 52.968107 49.414416  L 52.952881 49.280288  L 52.936010 49.146357  L 52.917496 49.012643  L 52.897343 48.879167  L 52.875554 48.745947  L 52.852131 48.613006  L 52.827079 48.480361  L 52.800401 48.348034  L 52.772101 48.216044  L 52.742184 48.084412  L 52.710653 47.953157  L 52.677514 47.822298  L 52.642772 47.691856  L 52.606432 47.561850  L 52.568499 47.432300  L 52.528979 47.303225  L 52.487878 47.174645  L 52.445202 47.046579  L 52.400958 46.919046  L 52.355153 46.792066  L 52.307792 46.665657  L 52.258884 46.539839  L 52.208436 46.414631  L 52.156454 46.290051  L 52.027675 46.304030  L 51.898994 46.318887  L 51.770417 46.334621  L 51.641951 46.351231  L 51.513600 46.368717  L 51.385372 46.387077  L 51.257272 46.406311  L 51.129306 46.426418  L 51.001480 46.447396  L 50.873801 46.469246  L 50.746273 46.491966  L 50.618903 46.515555  L 50.491696 46.540011  L 50.364660 46.565334  L 50.237799 46.591523  L 50.111119 46.618576  L 49.984627 46.646492  L 49.858328 46.675270  L 49.732229 46.704908  L 49.606334 46.735405  L 49.480650 46.766760  L 49.355183 46.798970  L 49.229938 46.832036  L 49.104922 46.865955  L 48.980140 46.900725  L 48.855598 46.936345  L 48.731301 46.972813  L 48.607256 47.010128  L 48.483469 47.048287  L 48.359944 47.087290  L 48.236688 47.127134  L 48.113707 47.167818  L 47.991006 47.209338  L 47.868590 47.251695  L 47.746467 47.294885  L 47.624640 47.338906  L 47.503117 47.383758  L 47.381902 47.429436  L 47.261002 47.475940  L 47.140421 47.523267  L 47.020166 47.571415  L 46.900242 47.620382  L 46.780654 47.670166  L 46.661409 47.720763  L 46.542511 47.772172  L 46.423967 47.824391  L 46.305782 47.877417  L 46.187960 47.931247  L 46.070509 47.985879  L 45.953432 48.041310  L 45.836736 48.097539  L 45.720427 48.154562  L 45.604508 48.212376  L 45.488987 48.270980  L 45.373868 48.330369  L 45.259156 48.390542  L 45.144858 48.451496  L 45.030977 48.513228  L 44.917520 48.575734  L 44.804492 48.639013  L 44.691898 48.703060  L 44.579743 48.767874  L 44.468032 48.833451  L 44.356772 48.899788  L 44.356772 52.199788  L 41.056772 52.199788  L 41.056772 48.899788  L 44.356772 48.899788  M 41.035883 52.235549  L 40.923481 52.299934  L 40.810643 52.363552  L 40.697374 52.426398  L 40.583679 52.488471  L 40.469564 52.549768  L 40.355033 52.610285  L 40.240093 52.670019  L 40.124748 52.728969  L 40.009004 52.787131  L 39.892865 52.844502  L 39.776339 52.901081  L 39.659429 52.956863  L 39.542142 53.011847  L 39.424483 53.066031  L 39.306457 53.119411  L 39.188070 53.171985  L 39.069327 53.223750  L 38.950234 53.274705  L 38.830796 53.324847  L 38.711019 53.374174  L 38.590909 53.422682  L 38.470471 53.470371  L 38.349711 53.517237  L 38.228633 53.563279  L 38.107245 53.608495  L 37.985551 53.652882  L 37.863558 53.696438  L 37.741270 53.739161  L 37.618694 53.781050  L 37.495836 53.822102  L 37.372700 53.862316  L 37.249293 53.901689  L 37.125620 53.940220  L 37.001688 53.977906  L 36.877501 54.014747  L 36.753066 54.050741  L 36.628389 54.085885  L 36.503475 54.120179  L 36.378330 54.153620  L 36.252960 54.186207  L 36.127371 54.217938  L 36.001568 54.248813  L 35.875558 54.278829  L 35.749346 54.307986  L 35.622938 54.336281  L 35.496340 54.363714  L 35.369559 54.390283  L 35.242599 54.415987  L 35.115466 54.440825  L 34.988168 54.464796  L 34.860708 54.487898  L 34.733095 54.510131  L 34.605332 54.531493  L 34.477427 54.551983  L 34.349386 54.571601  L 34.221213 54.590346  L 34.092916 54.608217  L 33.964500 54.625212  L 33.835971 54.641332  L 33.707335 54.656574  L 33.578598 54.670940  L 33.449766 54.684427  L 33.320845 54.697036  L 33.191842 54.708766  L 33.142043 54.583298  L 33.093787 54.457228  L 33.047082 54.330576  L 33.001935 54.203360  L 32.958352 54.075600  L 32.916341 53.947314  L 32.875907 53.818523  L 32.837056 53.689245  L 32.799795 53.559500  L 32.764129 53.429307  L 32.730063 53.298687  L 32.697602 53.167658  L 32.666752 53.036241  L 32.637517 52.904456  L 32.609902 52.772321  L 32.583910 52.639858  L 32.559545 52.507085  L 32.536812 52.374024  L 32.515713 52.240693  L 32.496252 52.107114  L 32.478431 51.973306  L 32.462254 51.839290  L 32.447723 51.705084  L 32.434840 51.570711  L 32.423607 51.436190  L 32.414025 51.301541  L 32.406097 51.166785  L 32.399822 51.031941  L 32.395203 50.897031  L 32.392240 50.762074  L 32.390933 50.627091  L 32.391283 50.492101  L 32.393289 50.357127  L 32.396951 50.222187  L 32.402270 50.087303  L 32.409242 49.952493  L 32.417869 49.817780  L 32.428148 49.683182  L 32.440078 49.548721  L 32.453658 49.414416  L 32.468884 49.280288  L 32.485755 49.146357  L 32.504269 49.012643  L 32.524422 48.879167  L 32.546211 48.745947  L 32.569634 48.613006  L 32.594686 48.480361  L 32.621364 48.348034  L 32.649664 48.216044  L 32.679581 48.084412  L 32.711112 47.953157  L 32.744251 47.822298  L 32.778993 47.691856  L 32.815333 47.561850  L 32.853266 47.432300  L 32.892786 47.303225  L 32.933887 47.174645  L 32.976563 47.046579  L 33.020807 46.919046  L 33.066612 46.792066  L 33.113973 46.665657  L 33.162881 46.539839  L 33.213329 46.414631  L 33.265311 46.290051  L 33.394090 46.304030  L 33.522771 46.318887  L 33.651348 46.334621  L 33.779814 46.351231  L 33.908165 46.368717  L 34.036393 46.387077  L 34.164493 46.406311  L 34.292459 46.426418  L 34.420285 46.447396  L 34.547964 46.469246  L 34.675492 46.491966  L 34.802862 46.515555  L 34.930069 46.540011  L 35.057105 46.565334  L 35.183966 46.591523  L 35.310646 46.618576  L 35.437138 46.646492  L 35.563437 46.675270  L 35.689536 46.704908  L 35.815431 46.735405  L 35.941115 46.766760  L 36.066582 46.798970  L 36.191827 46.832036  L 36.316843 46.865955  L 36.441625 46.900725  L 36.566167 46.936345  L 36.690464 46.972813  L 36.814509 47.010128  L 36.938296 47.048287  L 37.061821 47.087290  L 37.185077 47.127134  L 37.308058 47.167818  L 37.430759 47.209338  L 37.553175 47.251695  L 37.675298 47.294885  L 37.797125 47.338906  L 37.918648 47.383758  L 38.039863 47.429436  L 38.160763 47.475940  L 38.281344 47.523267  L 38.401599 47.571415  L 38.521523 47.620382  L 38.641111 47.670166  L 38.760356 47.720763  L 38.879254 47.772172  L 38.997798 47.824391  L 39.115984 47.877417  L 39.233805 47.931247  L 39.351256 47.985879  L 39.468333 48.041310  L 39.585029 48.097539  L 39.701338 48.154562  L 39.817257 48.212376  L 39.932778 48.270980  L 40.047897 48.330369  L 40.162609 48.390542  L 40.276907 48.451496  L 40.390788 48.513228  L 40.504245 48.575734  L 40.617273 48.639013  L 40.729867 48.703060  L 40.842022 48.767874  L 40.953733 48.833451  L 41.064993 48.899788  M 32.385883 51.235549  L 13.728824 39.577326  L 13.532920 39.448426  L 13.343275 39.310483  L 13.160306 39.163799  L 12.984417 39.008698  L 12.815993 38.845519  L 12.655406 38.674624  L 12.503009 38.496386  L 12.359136 38.311199  L 12.224105 38.119469  L 12.098213 37.921620  L 11.981735 37.718084  L 11.874930 37.509311  L 11.778030 37.295760  L 11.691251 37.077900  L 11.614782 36.856211  L 11.548792 36.631180  L 11.493425 36.403303  L 11.448805 36.173080  L 11.415028 35.941018  L 11.392170 35.707627  L 11.380280 35.473422  L 11.379385 35.238917  L 11.389486 35.004627  L 11.410561 34.771069  L 11.442565 34.538756  L 11.485426 34.308199  L 11.539051 34.079905  L 11.603321 33.854377  L 11.678095 33.632111  L 11.763208 33.413594  L 11.858474 33.199310  L 11.963683 32.989727  L 12.078603 32.785308  L 12.202981 32.586503  L 12.336544 32.393748  L 12.478998 32.207468  L 12.630030 32.028072  L 12.789308 31.855955  L 12.956480 31.691495  L 13.131180 31.535055  L 13.313024 31.386979  L 13.501610 31.247591  L 13.696524 31.117200  L 13.897338 30.996091  L 14.103610 30.884531  L 14.314886 30.782766  L 14.530700 30.691019  L 14.750580 30.609492  L 14.974040 30.538365  L 15.200590 30.477793  L 15.429730 30.427911  L 15.660958 30.388828  L 15.893763 30.360630  L 16.127635 30.343378  L 16.362058 30.337112  L 16.596518 30.341844  L 16.830497 30.357564  L 17.063482 30.384238  L 17.294961 30.421807  L 17.524423 30.470189  L 17.751364 30.529276  L 17.975285 30.598939  L 18.195693 30.679025  L 18.412104 30.769358  L 32.115286 36.870407  L 40.115286 36.870407  L 35.875045 34.220811  L 35.739897 34.132520  L 35.608422 34.038848  L 35.480833 33.939947  L 35.357339 33.835978  L 35.238141 33.727111  L 35.123432 33.613523  L 35.013400 33.495399  L 34.908224 33.372932  L 34.808075 33.246320  L 34.713117 33.115771  L 34.623503 32.981496  L 34.539380 32.843715  L 34.460886 32.702651  L 34.388147 32.558536  L 34.321282 32.411602  L 34.260401 32.262090  L 34.205602 32.110244  L 34.156974 31.956310  L 34.114597 31.800539  L 34.078540 31.643186  L 34.048862 31.484505  L 34.025611 31.324756  L 34.008824 31.164200  L 33.998529 31.003096  L 33.994744 30.841709  L 33.997473 30.680300  L 34.006713 30.519132  L 34.022449 30.358469  L 34.044654 30.198572  L 34.073293 30.039700  L 34.108319 29.882114  L 34.149676 29.726069  L 34.197295 29.571820  L 34.251099 29.419618  L 34.311000 29.269712  L 34.376902 29.122344  L 34.448696 28.977755  L 34.526266 28.836181  L 34.609485 28.697852  L 34.698218 28.562994  L 34.792320 28.431826  L 34.891638 28.304561  L 34.996010 28.181408  L 35.105267 28.062566  L 35.219229 27.948230  L 35.337713 27.838585  L 35.460524 27.733811  L 35.587462 27.634077  L 35.718322 27.539546  L 35.852889 27.450372  L 35.990945 27.366701  L 36.132264 27.288668  L 36.276617 27.216401  L 36.423769 27.150018  L 36.573479 27.089626  L 36.725504 27.035324  L 36.879596 26.987201  L 37.035505 26.945334  L 37.192975 26.909792  L 37.351752 26.880633  L 37.511576 26.857905  L 37.672187 26.841644  L 37.833323 26.831876  L 37.994722 26.828619  L 42.994722 26.828619  L 61.788575 33.669022  M 65.385883 67.835549  L 65.813407 67.971438  L 66.242638 68.101835  L 66.673506 68.226721  L 67.105938 68.346074  L 67.539865 68.459874  L 67.975214 68.568104  L 68.411915 68.670745  L 68.849896 68.767780  L 69.289084 68.859194  L 69.729408 68.944971  L 70.170796 69.025098  L 70.613173 69.099561  L 71.056469 69.168347  L 71.500611 69.231447  L 71.945524 69.288848  L 72.391137 69.340543  L 72.837375 69.386522  L 73.284167 69.426778  L 73.731437 69.461304  L 74.179113 69.490094  L 74.627122 69.513145  L 75.075389 69.530451  L 75.523841 69.542011  L 75.972404 69.547822  L 76.421006 69.547883  L 76.869571 69.542194  L 77.318026 69.530757  L 77.766298 69.513573  L 78.214312 69.490645  L 78.661997 69.461976  L 79.109276 69.427572  L 79.556079 69.387438  L 80.002330 69.341581  L 80.447956 69.290008  L 80.892886 69.232727  L 81.337044 69.169749  L 81.780359 69.101083  L 82.222757 69.026741  L 82.664166 68.946735  L 83.104513 68.861078  L 83.543727 68.769784  L 83.981734 68.672868  L 84.418463 68.570346  L 84.853842 68.462235  L 85.287799 68.348553  L 85.720264 68.229318  L 86.151166 68.104550  L 86.580432 67.974269  L 87.007994 67.838498  L 87.433780 67.697257  L 87.857722 67.550571  L 88.279748 67.398463  L 88.699790 67.240958  L 89.117779 67.078083  L 89.533646 66.909864  L 89.947322 66.736329  L 90.358741 66.557506  L 90.767834 66.373424  L 91.174533 66.184114  L 91.578773 65.989608  L 91.980487 65.789936  L 92.379609 65.585131  L 92.776073 65.375228  L 93.169814 65.160261  L 93.504002 64.971186  L 93.834840 64.776308  L 94.162226 64.575686  L 94.486061 64.369380  L 94.806246 64.157454  L 95.122684 63.939972  L 95.435278 63.717001  L 95.743933 63.488609  L 96.048555 63.254864  L 96.349051 63.015839  L 96.645330 62.771605  L 96.937301 62.522238  L 97.224876 62.267814  L 97.507966 62.008409  L 97.786487 61.744103  L 98.060352 61.474977  L 98.329478 61.201112  L 98.593784 60.922591  L 98.853189 60.639501  L 99.107613 60.351926  L 99.356980 60.059955  L 99.601214 59.763676  L 99.840239 59.463180  L 100.073984 59.158558  L 100.302376 58.849903  L 100.525347 58.537309  L 100.742829 58.220871  L 100.954755 57.900686  L 101.161060 57.576851  L 101.361683 57.249465  L 101.556561 56.918627  L 101.745636 56.584439  L 101.928849 56.247002  L 102.106146 55.906418  L 102.277471 55.562793  L 102.442774 55.216229  L 102.602002 54.866834  L 102.755109 54.514712  L 102.902047 54.159972  L 103.042772 53.802722  L 103.177240 53.443071  L 103.305411 53.081127  L 103.427246 52.717001  L 103.542707 52.350805  L 103.651760 51.982649  L 103.754371 51.612646  L 103.850508 51.240909  L 103.940144 50.867551  L 104.023250 50.492685  L 104.099800 50.116425  L 104.169773 49.738887  L 104.233146 49.360186  L 104.289900 48.980436  L 104.340018 48.599753  L 104.383484 48.218254  L 104.420286 47.836054  L 104.450411 47.453270  L 104.473852 47.070018  L 104.490601 46.686416  L 104.500652 46.302580  L 104.504002 45.918627  L 104.500652 45.534674  L 104.490601 45.150839  L 104.473852 44.767236  L 104.369180 42.769977  L 104.348153 42.442319  L 104.319448 42.115243  L 104.283080 41.788931  L 104.239070 41.463562  L 104.187443 41.139314  L 104.128225 40.816365  L 104.061451 40.494895  L 103.987156 40.175078  L 103.905381 39.857092  L 103.816172 39.541111  L 103.719578 39.227309  L 103.615651 38.915858  L 103.504450 38.606930  L 103.386034 38.300695  L 103.260469 37.997321  L 103.127825 37.696975  L 102.988173 37.399823  L 102.841592 37.106026  L 102.688161 36.815749  L 102.527965 36.529149  L 102.361092 36.246384  L 102.187635 35.967611  L 102.007687 35.692982  L 101.821349 35.422648  L 101.628722 35.156759  L 101.429913 34.895459  L 101.225031 34.638894  L 101.014189 34.387204  L 100.797502 34.140528  L 100.575090 33.899001  L 100.347076 33.662756  L 100.113584 33.431924  L 99.874743 33.206630  L 99.630684 32.986999  L 99.381543 32.773152  L 99.127454 32.565206  L 98.868559 32.363276  L 98.605000 32.167473  L 98.336922 31.977904  L 98.064472 31.794675  L 97.787800 31.617884  L 97.507058 31.447631  L 97.222401 31.284007  L 96.933985 31.127105  L 96.641969 30.977009  L 96.346513 30.833802  L 96.047780 30.697563  L 95.745935 30.568367  L 95.441143 30.446285  L 95.133571 30.331385  L 94.823390 30.223729  L 94.510770 30.123376  L 94.195882 30.030382  L 93.878900 29.944798  L 93.559998 29.866671  L 93.239351 29.796044  L 92.917137 29.732956  L 92.593532 29.677441  L 92.268713 29.629531  L 91.942861 29.589250  L 91.616154 29.556623  L 91.288771 29.531665  L 90.960893 29.514392  L 90.632700 29.504813  L 75.634985 29.243027  L 75.469858 29.164182  L 75.303442 29.088096  L 75.135784 29.014787  L 74.966929 28.944278  L 74.796925 28.876588  L 74.625818 28.811735  L 74.453656 28.749737  L 74.280487 28.690611  L 74.106358 28.634374  L 73.931318 28.581042  L 73.755415 28.530628  L 73.578698 28.483148  L 73.401215 28.438614  L 73.223016 28.397038  L 73.044150 28.358432  L 72.864667 28.322807  L 72.684616 28.290172  L 72.504047 28.260537  L 72.323010 28.233910  L 72.141555 28.210298  L 71.959732 28.189707  L 71.777592 28.172144  L 71.595185 28.157613  L 71.412562 28.146119  L 71.229773 28.137663  L 71.046868 28.132250  L 70.863899 28.129880  L 70.680915 28.130553  L 70.497968 28.134271  L 70.315108 28.141031  L 70.132386 28.150832  L 69.949852 28.163671  L 69.767557 28.179544  L 69.585552 28.198448  L 69.403886 28.220377  L 69.222610 28.245324  L 69.041773 28.273284  L 68.861428 28.304248  L 68.681622 28.338207  L 68.502405 28.375153  L 68.323829 28.415075  L 68.145941 28.457961  L 67.968791 28.503801  L 67.792428 28.552582  L 67.616900 28.604289  L 67.442258 28.658909  L 67.268548 28.716426  L 67.095818 28.776825  L 66.924118 28.840089  L 66.753493 28.906200  L 66.583992 28.975141  L 66.415661 29.046891  L 66.248547 29.121432  L 66.082696 29.198742  L 65.918154 29.278800  L 65.754966 29.361584  L 65.593178 29.447072  L 65.432835 29.535238  L 65.273980 29.626060  L 65.116658 29.719512  L 64.960912 29.815567  L 64.806786 29.914200  L 64.654322 30.015384  L 64.503562 30.119089  L 64.395623 30.252754  L 64.288049 30.386714  L 64.180841 30.520966  L 64.073999 30.655510  L 63.967525 30.790345  L 63.861419 30.925470  L 63.755682 31.060883  L 63.650314 31.196585  L 63.545317 31.332573  L 63.440691 31.468847  L 63.336437 31.605406  L 63.232556 31.742249  L 63.129048 31.879375  L 63.025915 32.016782  L 62.923157 32.154470  L 62.820775 32.292438  L 62.718769 32.430684  L 62.617141 32.569209  L 62.515891 32.708009  L 62.415020 32.847086  L 62.314528 32.986437  L 62.214417 33.126061  L 62.114687 33.265958  L 62.015339 33.406127  L 61.916374 33.546565  L 61.817792 33.687274  L 61.719594 33.828250  L 61.621780 33.969494  L 61.524353 34.111004  L 61.427311 34.252779  L 61.330657 34.394818  L 61.234390 34.537121  L 61.138512 34.679685  L 61.043023 34.822510  L 60.947923 34.965595  L 60.853215 35.108939  L 60.758897 35.252541  L 60.664972 35.396399  L 60.571439 35.540513  L 60.478299 35.684882  L 60.385554 35.829504  L 60.293203 35.974378  L 60.201248 36.119504  L 60.109689 36.264880  L 60.018526 36.410505  L 59.927762 36.556378  L 59.837395 36.702498  L 59.747427 36.848864  L 59.657858 36.995475  L 59.568690 37.142329  L 59.479923 37.289426  L 59.391557 37.436765  L 59.303593 37.584344  L 59.216032 37.732163  L 59.128874 37.880219  L 59.042120 38.028513  L 58.955771 38.177043  L 58.869828 38.325808  L 58.784291 38.474806  L 58.699160 38.624037  L 58.614436 38.773500  L 58.530121 38.923194  L 58.446214 39.073116  L 58.362716 39.223267  L 58.292809 39.352566  L 58.225632 39.483304  L 58.161215 39.615424  L 58.099587 39.748867  L 58.040774 39.883574  L 57.984802 40.019487  L 57.931697 40.156545  L 57.881481 40.294688  L 57.834177 40.433855  L 57.789805 40.573984  L 57.748385 40.715014  L 57.709936 40.856883  L 57.674474 40.999528  L 57.642015 41.142886  L 57.612573 41.286894  L 57.586161 41.431488  L 57.562791 41.576605  L 57.542474 41.722181  L 57.525217 41.868151  L 57.511029 42.014452  L 57.499917 42.161018  L 57.491884 42.307785  L 57.486934 42.454688  L 57.485070 42.601663  L 57.486293 42.748645  L 57.490601 42.895568  L 57.497994 43.042369  L 57.508467 43.188982  L 57.522016 43.335343  L 57.538636 43.481387  L 57.558318 43.627050  L 57.581054 43.772268  L 57.606835 43.916976  L 57.635648 44.061111  L 57.667481 44.204610  L 57.702321 44.347408  L 57.740151 44.489443  L 57.780955 44.630652  L 57.824715 44.770974  L 57.871411 44.910346  L 57.921024 45.048707  L 57.973531 45.185995  L 58.028909 45.322151  L 58.087133 45.457114  L 58.148179 45.590825  L 58.212019 45.723224  L 58.278624 45.854254  L 58.347966 45.983856  L 58.420014 46.111974  L 58.494737 46.238551  L 58.572100 46.363531  L 58.652071 46.486859  L 58.734613 46.608480  L 58.819691 46.728342  L 58.907267 46.846391  L 58.997303 46.962575  L 59.089758 47.076843  L 59.184592 47.189145  L 59.281763 47.299430  L 59.381228 47.407651  L 59.482943 47.513760  L 59.586865 47.617709  L 59.692946 47.719454  L 59.801139 47.818949  L 59.893335 47.899936  L 59.987491 47.978636  L 60.083550 48.055002  L 60.181454 48.128988  L 60.281144 48.200548  L 60.382561 48.269641  L 60.485642 48.336224  L 60.590327 48.400257  L 60.696551 48.461701  L 60.804252 48.520520  L 60.913363 48.576679  L 61.023820 48.630143  L 61.135555 48.680880  L 61.248502 48.728859  L 61.362593 48.774052  L 61.477758 48.816432  L 61.593929 48.855973  L 61.711035 48.892650  L 61.829005 48.926443  L 61.947770 48.957331  L 62.067257 48.985294  L 62.187394 49.010317  L 62.308109 49.032384  L 62.429329 49.051481  L 62.550982 49.067599  L 62.672993 49.080725  L 62.795290 49.090854  L 62.917798 49.097978  L 63.040444 49.102093  L 63.163155 49.103198  L 63.285855 49.101290  L 63.408472 49.096372  L 63.530931 49.088446  L 63.653159 49.077518  L 63.775082 49.063593  L 63.896626 49.046680  L 64.017719 49.026789  L 64.138287 49.003932  L 64.258258 48.978124  L 64.377559 48.949379  L 64.496119 48.917715  L 64.613866 48.883151  L 64.730729 48.845707  L 64.846639 48.805407  L 64.961524 48.762275  L 65.075316 48.716336  L 65.187947 48.667618  L 65.299348 48.616151  L 65.409452 48.561965  L 65.518194 48.505094  L 65.625507 48.445571  L 65.731327 48.383433  L 65.835590 48.318716  L 65.938234 48.251460  L 66.039196 48.181705  L 66.138415 48.109494  L 66.235833 48.034869  L 66.331390 47.957876  L 66.425029 47.878561  L 66.516693 47.796972  L 66.606327 47.713158  L 66.693877 47.627169  L 66.779291 47.539058  L 66.862516 47.448877  L 66.815932 47.706491  L 66.776108 47.965236  L 66.743070 48.224935  L 66.716841 48.485410  L 66.697440 48.746482  L 66.684880 49.007972  L 66.679169 49.269702  L 66.680311 49.531492  L 66.688306 49.793161  L 66.703148 50.054532  L 66.724826 50.315425  L 66.753327 50.575661  L 66.788630 50.835062  L 66.830711 51.093449  L 66.879541 51.350647  L 66.935088 51.606478  L 66.997312 51.860767  L 67.066171 52.113341  L 67.141619 52.364025  L 67.223603 52.612649  L 67.312066 52.859041  L 67.406950 53.103033  L 67.508188 53.344458  L 67.615710 53.583150  L 67.729445 53.818946  L 67.849312 54.051683  L 67.975231 54.281203  L 68.107115 54.507348  L 68.244874 54.729964  L 68.388413 54.948896  L 68.537633 55.163997  L 68.692433 55.375118  L 68.852707 55.582114  L 69.018344 55.784844  L 69.189231 55.983168  L 69.365251 56.176951  L 69.546284 56.366060  L 69.732205 56.550365  L 69.922886 56.729741  L 70.118198 56.904063  L 70.318006 57.073213  L 70.522174 57.237075  L 70.730560 57.395536  L 70.943024 57.548488  L 71.159418 57.695826  L 71.379596 57.837448  L 71.603405 57.973259  L 71.830692 58.103165  L 72.061302 58.227076  L 72.295077 58.344908  L 72.531856 58.456580  L 72.771477 58.562016  L 73.013776 58.661143  L 73.258587 58.753894  L 73.505742 58.840204  L 73.755071 58.920015  L 74.006405 58.993272  L 74.259569 59.059925  L 74.514392 59.119928  L 74.770698 59.173239  L 75.028312 59.219823  L 75.287057 59.259648  L 75.546756 59.292686  L 75.807231 59.318914  M 92.385883 65.735549  L 92.523407 65.881742  L 92.662202 66.026730  L 92.802257 66.170500  L 92.943562 66.313043  L 93.086105 66.454347  L 93.229875 66.594402  L 93.374862 66.733198  L 93.521055 66.870722  L 93.668443 67.006966  L 93.817014 67.141918  L 93.966757 67.275569  L 94.117660 67.407907  L 94.269713 67.538924  L 94.422903 67.668609  L 94.577219 67.796952  L 94.732649 67.923944  L 94.889181 68.049575  L 95.046804 68.173834  L 95.205505 68.296714  L 95.365272 68.418204  L 95.526094 68.538295  L 95.687957 68.656978  L 95.850850 68.774244  L 96.014760 68.890084  L 96.179674 69.004489  L 96.345581 69.117451  L 96.512467 69.228961  L 96.680320 69.339010  L 96.849127 69.447590  L 97.018875 69.554693  L 97.189551 69.660311  L 97.361142 69.764435  L 97.533635 69.867058  L 97.707018 69.968171  L 97.881276 70.067768  L 98.056396 70.165840  L 98.232366 70.262381  L 98.409172 70.357382  L 98.586800 70.450836  L 98.765236 70.542737  L 98.944468 70.633077  L 99.124481 70.721850  L 99.305262 70.809049  L 99.486798 70.894666  L 99.669073 70.978696  L 99.852075 71.061133  L 100.035789 71.141969  L 100.220202 71.221199  L 100.405299 71.298816  L 100.591066 71.374816  L 100.777489 71.449191  L 100.964555 71.521937  L 101.152248 71.593047  L 101.340554 71.662517  L 101.529460 71.730341  L 101.718950 71.796514  L 101.909011 71.861031  L 102.099627 71.923887  L 102.290784 71.985077  L 102.482468 72.044596  L 102.674665 72.102441  L 102.867358 72.158606  L 103.060535 72.213087  L 103.254180 72.265881  L 103.452769 72.314763  L 103.653191 72.355482  L 103.855110 72.387971  L 104.058189 72.412176  L 104.262088 72.428055  L 104.466466 72.435583  L 104.670981 72.434746  L 104.875290 72.425547  L 105.079053 72.408000  L 105.281927 72.382134  L 105.483574 72.347995  L 105.683656 72.305637  L 105.881839 72.255132  L 106.077790 72.196565  L 106.271182 72.130034  L 106.461692 72.055650  L 106.649000 71.973537  L 106.832794 71.883832  L 107.012766 71.786687  L 107.188614 71.682263  L 107.360045 71.570735  L 107.526771 71.452290  L 107.688515 71.327125  L 107.845004 71.195451  L 107.995978 71.057487  L 108.141183 70.913465  L 108.280377 70.763625  L 108.413327 70.608218  L 108.539811 70.447505  L 108.659616 70.281753  L 108.772543 70.111240  L 108.878402 69.936252  L 108.977016 69.757081  L 109.068221 69.574027  L 109.151864 69.387397  L 109.227804 69.197502  L 109.295916 69.004661  L 109.356084 68.809195  L 109.408208 68.611432  L 109.452201 68.411704  L 109.487990 68.210343  L 109.515514 68.007687  L 109.534727 67.804075  L 109.545598 67.599847  L 109.548108 67.395346  L 109.542252 67.190914  L 109.528041 66.986891  L 109.505499 66.783621  L 109.474663 66.581442  L 109.435585 66.380694  L 109.388330 66.181712  L 109.332977 65.984829  L 109.269618 65.790374  L 109.198361 65.598672  L 109.119324 65.410045  L 109.032639 65.224808  L 108.938451 65.043272  L 108.836918 64.865738  L 108.728210 64.692506  L 108.612508 64.523863  L 108.490007 64.360094  L 108.360911 64.201471  L 108.225436 64.048260  L 108.083809 63.900718  L 108.039397 63.856427  L 107.994864 63.812257  L 107.950211 63.768209  L 107.905438 63.724282  L 107.860545 63.680478  L 107.815533 63.636797  L 107.770403 63.593238  L 107.725153 63.549803  L 107.679785 63.506491  L 107.634300 63.463303  L 107.588696 63.420239  L 107.542976 63.377300  L 107.497138 63.334486  L 107.451184 63.291797  L 107.405114 63.249233  L 107.358928 63.206795  L 107.312626 63.164483  L 107.266209 63.122298  L 107.219677 63.080239  L 107.173030 63.038308  L 107.126270 62.996504  L 107.079395 62.954827  L 107.032408 62.913279  L 106.985307 62.871858  L 106.938093 62.830567  L 106.890766 62.789404  L 106.843328 62.748371  L 106.795778 62.707467  L 106.748117 62.666692  L 106.700344 62.626048  L 106.652461 62.585535  L 106.604468 62.545152  L 106.556364 62.504900  L 106.508152 62.464779  L 106.459829 62.424791  L 106.411398 62.384934  L 106.362859 62.345209  L 106.314211 62.305617  L 106.265456 62.266157  L 106.216593 62.226831  L 106.167623 62.187638  L 106.118546 62.148579  L 106.069363 62.109654  L 106.020074 62.070863  L 105.970679 62.032206  L 105.921180 61.993685  L 105.871575 61.955298  L 105.821866 61.917047  L 105.772052 61.878932  L 105.722135 61.840953  L 105.672115 61.803109  L 105.621991 61.765403  L 105.571765 61.727833  L 105.521437 61.690401  L 105.471006 61.653106  L 105.420475 61.615948  L 105.369842 61.578929  L 105.319108 61.542047  L 105.268274 61.505304  L 105.217340 61.468700  L 105.166306 61.432235  L 105.115173 61.395909  L 105.063941 61.359723  L 105.012611 61.323677  L 105.109614 61.338797  L 105.206691 61.353440  L 105.303838 61.367607  L 105.401053 61.381297  L 105.498335 61.394509  L 105.595680 61.407244  L 105.693087 61.419501  L 105.790552 61.431279  L 105.888074 61.442579  L 105.985651 61.453400  L 106.083279 61.463742  L 106.180957 61.473605  L 106.278683 61.482988  L 106.376453 61.491891  L 106.474265 61.500314  L 106.572118 61.508257  L 106.670009 61.515719  L 106.767935 61.522701  L 106.865894 61.529202  L 106.963884 61.535222  L 107.061902 61.540761  L 107.159947 61.545819  L 107.258015 61.550396  L 107.356104 61.554491  L 107.454212 61.558104  L 107.552337 61.561236  L 107.650476 61.563887  L 107.748626 61.566055  L 107.846786 61.567742  L 107.944954 61.568946  L 108.043126 61.569669  L 108.141300 61.569910  L 108.239474 61.569669  L 108.337646 61.568946  L 108.435814 61.567742  L 108.533974 61.566055  L 108.632125 61.563887  L 108.730264 61.561236  L 108.828388 61.558104  L 108.926496 61.554491  L 109.024586 61.550396  L 109.122654 61.545819  L 109.220698 61.540761  L 109.318716 61.535222  L 109.416706 61.529202  L 109.514665 61.522701  L 109.612591 61.515719  L 109.710482 61.508257  L 109.808335 61.500314  L 109.906148 61.491891  L 110.003918 61.482988  L 110.101643 61.473605  L 110.199321 61.463742  L 110.296949 61.453400  L 110.394526 61.442579  L 110.492048 61.431279  L 110.589514 61.419501  L 110.686920 61.407244  L 110.784265 61.394509  L 110.881547 61.381297  L 110.978762 61.367607  L 111.075910 61.353440  L 111.172986 61.338797  L 111.269989 61.323677  L 111.471291 61.287559  L 111.670948 61.243239  L 111.868625 61.190791  L 112.063992 61.130303  L 112.256722 61.061877  L 112.446492 60.985626  L 112.632985 60.901678  L 112.815890 60.810173  L 112.994899 60.711266  L 113.169714 60.605120  L 113.340041 60.491915  L 113.505597 60.371839  L 113.666103 60.245092  L 113.821293 60.111888  L 113.970904 59.972449  L 114.114689 59.827008  L 114.252405 59.675809  L 114.383823 59.519104  L 114.508723 59.357157  L 114.626895 59.190237  L 114.738143 59.018623  L 114.842279 58.842605  L 114.939130 58.662474  L 115.028533 58.478534  L 115.110339 58.291091  L 115.184412 58.100460  L 115.250627 57.906959  L 115.308873 57.710912  L 115.359053 57.512648  L 115.401083 57.312496  L 115.434893 57.110794  L 115.460427 56.907878  L 115.477640 56.704087  L 115.486505 56.499762  L 115.487007 56.295247  L 115.479145 56.090881  L 115.462932 55.887008  L 115.438395 55.683969  L 115.405576 55.482103  L 115.364529 55.281748  L 115.315322 55.083239  L 115.258039 54.886909  L 115.192775 54.693085  L 115.119639 54.502093  L 115.038754 54.314251  L 114.950254 54.129874  L 114.854289 53.949270  L 114.751018 53.772742  L 114.640614 53.600585  L 114.523263 53.433087  L 114.399160 53.270528  L 114.268512 53.113181  L 114.131540 52.961307  L 113.988471 52.815162  L 113.839545 52.674990  L 113.685012 52.541026  L 113.525130 52.413493  L 113.360165 52.292606  L 113.190395 52.178566  L 113.016104 52.071563  L 112.837582 51.971778  L 112.655130 51.879377  L 112.469051 51.794515  L 112.279657 51.717333  L 112.228711 51.697857  L 112.177713 51.678519  L 112.126662 51.659321  L 112.075559 51.640262  L 112.024404 51.621342  L 111.973198 51.602562  L 111.921940 51.583922  L 111.870632 51.565421  L 111.819274 51.547061  L 111.767866 51.528841  L 111.716408 51.510760  L 111.664901 51.492821  L 111.613346 51.475022  L 111.561742 51.457363  L 111.510090 51.439845  L 111.458391 51.422469  L 111.406644 51.405233  L 111.354851 51.388138  L 111.303011 51.371185  L 111.251125 51.354373  L 111.199194 51.337703  L 111.147217 51.321174  L 111.095195 51.304788  L 111.043129 51.288543  L 110.991019 51.272440  L 110.938865 51.256479  L 110.886668 51.240661  L 110.834428 51.224985  L 110.782145 51.209452  L 110.729820 51.194061  L 110.677453 51.178813  L 110.625045 51.163708  L 110.572596 51.148746  L 110.520106 51.133926  L 110.467576 51.119251  L 110.415006 51.104718  L 110.362397 51.090329  L 110.309749 51.076083  L 110.257062 51.061981  L 110.204337 51.048023  L 110.151574 51.034208  L 110.098773 51.020538  L 110.045936 51.007011  L 109.993061 50.993629  L 109.940151 50.980391  L 109.887204 50.967297  L 109.834222 50.954348  L 109.781205 50.941543  L 109.728153 50.928883  L 109.675067 50.916368  L 109.621947 50.903997  L 109.568793 50.891771  L 109.515607 50.879691  L 109.462387 50.867755  L 109.409135 50.855965  L 109.355851 50.844320  L 109.302536 50.832820  L 109.249189 50.821465  L 109.195812 50.810256  L 109.142404 50.799193  L 109.088967 50.788276  L 109.035499 50.777504  L 108.982003 50.766878  L 108.928478 50.756398  L 108.971924 50.744687  L 109.015334 50.732845  L 109.058709 50.720874  L 109.102048 50.708772  L 109.145351 50.696540  L 109.188616 50.684179  L 109.231844 50.671688  L 109.275035 50.659067  L 109.318187 50.646316  L 109.361301 50.633437  L 109.404377 50.620428  L 109.447413 50.607289  L 109.490409 50.594022  L 109.533365 50.580626  L 109.576281 50.567101  L 109.619157 50.553448  L 109.661991 50.539665  L 109.704783 50.525755  L 109.747534 50.511716  L 109.790242 50.497549  L 109.832908 50.483254  L 109.875530 50.468831  L 109.918109 50.454280  L 109.960645 50.439601  L 110.003136 50.424795  L 110.045582 50.409862  L 110.087984 50.394801  L 110.130340 50.379613  L 110.172650 50.364298  L 110.214914 50.348857  L 110.257132 50.333288  L 110.299303 50.317593  L 110.341426 50.301772  L 110.383502 50.285824  L 110.425530 50.269751  L 110.467509 50.253551  L 110.509440 50.237225  L 110.551322 50.220774  L 110.593154 50.204197  L 110.634936 50.187494  L 110.676667 50.170667  L 110.718348 50.153714  L 110.759978 50.136636  L 110.801557 50.119434  L 110.843084 50.102107  L 110.884559 50.084655  L 110.925981 50.067079  L 110.967350 50.049379  L 111.008666 50.031555  L 111.049928 50.013607  L 111.091136 49.995535  L 111.132290 49.977340  L 111.173389 49.959021  L 111.214433 49.940579  L 111.255422 49.922014  L 111.296354 49.903326  L 111.337231 49.884516  L 111.378050 49.865583  L 111.418813 49.846528  L 111.459518 49.827350  L 111.500166 49.808050  L 111.540756 49.788629  L 111.581287 49.769086  L 111.621759 49.749421  L 111.812102 49.651487  L 111.998078 49.545495  L 112.179347 49.431641  L 112.355577 49.310132  L 112.526444 49.181191  L 112.691636 49.045056  L 112.850850 48.901974  L 113.003793 48.752209  L 113.150186 48.596034  L 113.289761 48.433737  L 113.422260 48.265615  L 113.547443 48.091975  L 113.665078 47.913137  L 113.774951 47.729427  L 113.876861 47.541183  L 113.970619 47.348750  L 114.056056 47.152480  L 114.133013 46.952732  L 114.201350 46.749874  L 114.260941 46.544277  L 114.311679 46.336318  L 114.353468 46.126377  L 114.386233 45.914841  L 114.409914 45.702096  L 114.424468 45.488532  L 114.429867 45.274541  L 114.426102 45.060514  L 114.413180 44.846846  L 114.391124 44.633926  L 114.359975 44.422145  L 114.319789 44.211892  L 114.270642 44.003551  L 114.212622 43.797505  L 114.145836 43.594131  L 114.070406 43.393802  L 113.986471 43.196885  L 113.894184 43.003741  L 113.793715 42.814725  L 113.685248 42.630181  L 113.568982 42.450450  L 113.445129 42.275859  L 113.313917 42.106730  L 113.175586 41.943372  L 113.030389 41.786085  L 112.878594 41.635156  L 112.720477 41.490863  L 112.556330 41.353470  L 112.386452 41.223228  L 112.211155 41.100377  L 112.030761 40.985142  L 111.845599 40.877733  L 111.656010 40.778348  L 111.462341 40.687169  L 111.264947 40.604363  L 111.064189 40.530082  L 110.860436 40.464462  L 110.654061 40.407623  L 110.445442 40.359669  L 110.234962 40.320689  L 110.023007 40.290753  L 109.809964 40.269917  L 109.596225 40.258218  L 109.382180 40.255679  L 109.168224 40.262303  L 109.089801 40.266585  L 109.011397 40.271209  L 108.933015 40.276174  L 108.854654 40.281482  L 108.776318 40.287132  L 108.698007 40.293123  L 108.619723 40.299456  L 108.541468 40.306130  L 108.463242 40.313146  L 108.385047 40.320503  L 108.306886 40.328202  L 108.228759 40.336241  L 108.150667 40.344621  L 108.072613 40.353342  L 107.994598 40.362403  L 107.916623 40.371804  L 107.838690 40.381546  L 107.760800 40.391627  L 107.682954 40.402049  L 107.605155 40.412810  L 107.527404 40.423910  L 107.449702 40.435349  L 107.372050 40.447128  L 107.294451 40.459245  L 107.216905 40.471700  L 107.139414 40.484494  L 107.061980 40.497626  L 106.984604 40.511095  L 106.907287 40.524902  L 106.830032 40.539047  L 106.752838 40.553528  L 106.675709 40.568346  L 106.598645 40.583500  L 106.521648 40.598990  L 106.444719 40.614816  L 106.367861 40.630978  L 106.291073 40.647475  L 106.214358 40.664307  L 106.137717 40.681473  L 106.061152 40.698974  L 105.984664 40.716808  L 105.908254 40.734976  L 105.831925 40.753478  L 105.755677 40.772312  L 105.679512 40.791479  L 105.603431 40.810977  L 105.527436 40.830808  L 105.451528 40.850970  L 105.375709 40.871463  L 105.299980 40.892287  L 105.224343 40.913441  L 105.148799 40.934924  L 105.073349 40.956738  L 104.997995 40.978880  L 104.922738 41.001351  L 104.847580 41.024149  L 104.772523 41.047276  L 104.697567 41.070730  L 104.622714 41.094511  L 104.547965 41.118618  L 104.473322 41.143051  L 104.398787 41.167809  L 104.324361 41.192893  L 104.250044 41.218301" 
                    stroke-width="1" 
                    stroke="black" 
                    fill="none" 
                    stroke-linecap="round"
                    stroke-linejoin="round"
                    style="transform: scale(1, 1);"
                    />
                </svg>
            